<svg xmlns="http://www.w3.org/2000/svg" xmlns:xlink="http://www.w3.org/1999/xlink" viewBox="0 0 263.35 157.52"><defs><style>.cls-1{fill:#fff;}.cls-2{fill:url(#Degradado_sin_nombre_593);}.cls-3{fill:url(#Degradado_sin_nombre_9);}.cls-4{fill:url(#Degradado_sin_nombre_9-2);}.cls-5{fill:url(#Degradado_sin_nombre_9-3);}.cls-6{fill:url(#Degradado_sin_nombre_9-4);}.cls-7{fill:url(#Degradado_sin_nombre_773);}.cls-8{fill:none;stroke:#fff;stroke-miterlimit:10;}.cls-9{fill:#191604;}.cls-10{fill:url(#Degradado_sin_nombre_593-2);}.cls-11{fill:url(#Degradado_sin_nombre_593-3);}.cls-12{fill:#e84e38;}.cls-13{fill:#464545;}.cls-14{fill:#ec7277;}.cls-15{fill:#f6f5f6;}</style><linearGradient id="Degradado_sin_nombre_593" x1="62.54" y1="-6.44" x2="211.16" y2="142.18" gradientUnits="userSpaceOnUse"><stop offset="0" stop-color="#d5b300"/><stop offset="0.5" stop-color="#e8d038"/><stop offset="1" stop-color="#fbee72"/></linearGradient><linearGradient id="Degradado_sin_nombre_9" x1="38.78" y1="66.16" x2="52.13" y2="66.16" gradientUnits="userSpaceOnUse"><stop offset="0" stop-color="#3d5ba7"/><stop offset="0.93" stop-color="#2d74ba"/><stop offset="1" stop-color="#2d76bb"/></linearGradient><linearGradient id="Degradado_sin_nombre_9-2" x1="130.37" y1="60.35" x2="145.01" y2="60.35" xlink:href="#Degradado_sin_nombre_9"/><linearGradient id="Degradado_sin_nombre_9-3" x1="201.3" y1="69.91" x2="216.87" y2="69.91" xlink:href="#Degradado_sin_nombre_9"/><linearGradient id="Degradado_sin_nombre_9-4" x1="68.66" y1="73.75" x2="84.23" y2="73.75" xlink:href="#Degradado_sin_nombre_9"/><linearGradient id="Degradado_sin_nombre_773" x1="3.64" y1="65.74" x2="263.35" y2="65.74" xlink:href="#Degradado_sin_nombre_9"/><linearGradient id="Degradado_sin_nombre_593-2" x1="163.59" y1="36.55" x2="191.04" y2="9.1" gradientTransform="translate(-0.63 6.65) rotate(-2.12)" xlink:href="#Degradado_sin_nombre_593"/><linearGradient id="Degradado_sin_nombre_593-3" x1="182.24" y1="27.64" x2="195.03" y2="14.86" gradientTransform="translate(-0.63 6.65) rotate(-2.12)" xlink:href="#Degradado_sin_nombre_593"/></defs><g id="Capa_2" data-name="Capa 2"><g id="Capa_1-2" data-name="Capa 1"><path class="cls-1" d="M70.22,26.49,67,27.55l2.74,8.34-2.8.92-2.74-8.34L61,29.52l-.79-2.41,9.21-3Z"/><path class="cls-1" d="M70.63,23.69l2.8-.92,1.28,3.91,3.69-1.21-1.28-3.91,2.8-.92,3.53,10.75-2.8.92L79.2,27.88l-3.69,1.21L77,33.52l-2.8.92Z"/><path class="cls-1" d="M81.81,20l8.57-2.81.74,2.24-5.77,1.9L86,23.22l5.27-1.73L92,23.66l-5.27,1.73.68,2.05,5.91-2,.8,2.41-8.72,2.87Z"/><polygon id="polygon16" points="0 54.67 11.75 74.51 16.45 70.04 3.65 50.96 0 54.67"/><polygon id="polygon18" points="174.5 39.08 174.05 41.69 179.67 39.88 178.97 36.68 174.5 39.08"/><polygon id="polygon25" points="141.75 21.22 123.66 41.96 128.93 40.45 146.15 18.94 141.75 21.22"/><polygon id="polygon27" points="238.51 49.58 242.96 47.21 241.69 58.33 238.51 49.58"/><polygon id="polygon29" points="210.92 56.71 214.87 57.52 219.9 55.07 215.53 53.44 210.92 56.71"/><polygon id="polygon36" points="74.86 44.9 75.49 57.79 81 55.56 79.35 42.49 74.86 44.9"/><polygon id="polygon43" points="215.19 41.06 210.76 43.45 210.92 56.71 215.38 54.42 216.78 48 215.19 41.06"/><polygon id="polygon45" points="214.58 57.55 209.7 100.92 217.5 99.38 219.03 55.21 214.58 57.55"/><polygon id="polygon47" points="224.14 102.99 224.28 108.87 239.26 113.65 243.72 111.28 229.02 99.9 214.13 98.59 209.7 100.92 224.14 102.99"/><polygon id="polygon49" points="168.57 92.65 172.25 90.67 174.59 95 178.06 93.1 178.76 98.81 200.53 102.67 204.89 100.28 174.85 81.98 153.55 85.63 149.4 89.58 168.57 92.65"/><polygon id="polygon56" points="161.63 39.3 157.27 41.7 149.4 89.58 153.81 87.29 161.37 60.41 161.63 39.3"/><polygon id="polygon58" points="126.84 45.72 123.37 47.57 123.66 48.73 131.93 43.47 128.31 39.6 123.66 41.96 126.84 45.72"/><polygon id="polygon60" points="136.34 102.28 100.82 84.69 105.28 81.32 140.76 99.89 136.34 102.28"/><polygon id="polygon62" points="104.16 36.81 98.78 47.01 104.47 45.29 108.57 34.41 104.16 36.81"/><path id="path69" d="M55.35,79l-4.54,3.12A72.61,72.61,0,0,0,53,90.68a18.94,18.94,0,0,0,4.22,6.37,16.23,16.23,0,0,0,6.87,4,19.19,19.19,0,0,0,15.55-2.6,28.32,28.32,0,0,0,4.06-3.11C78.93,98.23,55.35,79,55.35,79Z"/><polygon id="polygon71" points="79.65 56.73 83.79 102.45 100.72 99.94 105.25 97.57 84.24 53.99 79.92 55.45 75.49 57.79 79.65 56.73"/><polygon id="polygon78" points="16.17 72.61 35.09 115.52 53.06 109.72 57.45 106.77 20.15 67.74 15.48 70.54 11.75 74.51 16.17 72.61"/><path id="path80" d="M203.65,92.85,203.9,95a20.43,20.43,0,0,0,4.57-.87A26.41,26.41,0,0,0,215,90.81c-.51.18-8.76,2.32-11.31,2"/><path id="path82" d="M140.07,81.9l.67,3.39a26.26,26.26,0,0,0,9.83-3.73c1.93-1.15,4-2.88,4.71-3.34C154.81,78.52,140.07,81.9,140.07,81.9Z"/><g id="g84"><path id="path86" class="cls-2" d="M40,111.45l-1.41-3.12-17.93-40-.37-.82-.81.37-.55.25-3.19,1.57-1.8-3L6.73,54.44,4.84,51.25l3.13-2a67.81,67.81,0,0,1,9.92-5.18,55.31,55.31,0,0,1,21.33-4.71,37.21,37.21,0,0,1,6.36.53,20.46,20.46,0,0,1,9,3.19,19.87,19.87,0,0,1,8.52,9.36,17.55,17.55,0,0,1,.78,10.9l-.52,2.3,1.91-1.38a22.06,22.06,0,0,1,4.15-2.37,19.88,19.88,0,0,1,7.81-1.62,16.91,16.91,0,0,1,7,1.46l1.39.62-.14-1.51-.6-6.56-.1-1-1,.26-3,.79-.53-11.17L102.47,36l-.18,8.68,1.68.43,4.86-9.32,14.56,12.91.61.55.59-.56a22.62,22.62,0,0,1,7-4.47l1.11-.46-.76-.93-2.63-3.2L146.06,20.4l8.75,13.07-13.4,7.2-3,1.6,3.38.07a20.6,20.6,0,0,1,15.84,7.57l1.4,1.72.89,1.1-1.49,1.59-1,1.06L154.11,59l-.63.66.68.61L157.3,63l1.21,1.1.26-1.61,1.2-7.46.31-1.91h0l.32-2,1.8-11H179.2l.13-.74.31-1.89h14.45l3.5,22.11.23,1.43,1.17-.85a20.34,20.34,0,0,1,4.66-2.52,19.27,19.27,0,0,1,6.81-1.27,16.64,16.64,0,0,1,7.66,1.82,1.19,1.19,0,0,0,.26.15l1.09.44.13-1.17.26-2.41.08-.79-.77-.17-2.93-.65-.14-11.53,22.33,4.92,1.68,8.29,1.74,0,1.73-7.13,18.62,4.53-19,57.37-13.62-4.28-.1-5.28v-.76l-.76-.11-13.59-1.91.77-6.91.18-1.65-1.47.76a18.57,18.57,0,0,1-2,.88,19.14,19.14,0,0,1-6.77,1.27,18.25,18.25,0,0,1-2-.11L202.68,92l.19,1.15.95,6.08L184,95.68l-1-9-.33-2.89-1.34,2.58L179,90.76,174.8,83l-1.27-2.33-.4,2.62-.91,6-17.38-2.74,1.35-8.24.3-1.89-1.64,1a34.89,34.89,0,0,1-10,3.92,27.59,27.59,0,0,1-4.21.68l-.82.07V98.45L105.62,81.54l-1.29-.64v1.44l0,14.47-15.3,2.25-.64-7-.18-1.86L86.9,91.56a21.73,21.73,0,0,1-6.77,4.56,19.63,19.63,0,0,1-7.75,1.62,16.68,16.68,0,0,1-7.28-1.61A15.74,15.74,0,0,1,56.72,86a17,17,0,0,1-.49-6.69l.3-2.47-1.79,1.71A43.07,43.07,0,0,1,50.68,82l-.48.35.15.59,5.15,19.78.92,3.52L53,107.29l-9.7,3.11-3.25,1Zm4.36-53.12a9.06,9.06,0,0,0-1.54.13l-.66.13-1,.19.3.95.19.62,2.77,9.08.28.87.41,1.31,1-.91.68-.61c2.69-2.42,3.63-4.87,3.07-8A4.53,4.53,0,0,0,47.29,59a6.76,6.76,0,0,0-2.92-.62Zm74.4.29L117,60.31l-4.57,4.44-1,1,1.3.5,4.9,1.89,1.5.58-.31-1.58a21.17,21.17,0,0,1-.32-6.08l.23-2.41Zm20-5a6.87,6.87,0,0,0-6,10.16l.37.7.6,1.11.84-.94.55-.6,6.7-7.65.52-.61.85-1L142,54.32l-.75-.28a6.8,6.8,0,0,0-2.49-.47Z"/></g><path id="path88" d="M149,64.91a.86.86,0,0,0-.18.2l.2-.17Z"/><polygon id="polygon90" points="154.76 59.56 158.1 55.98 156.96 57.2 156.99 57.05 155.98 58.12 152.63 61.67 155.77 64.49 156.34 60.98 157.9 62.38 154.76 59.56"/><polygon id="polygon92" points="154.76 59.56 157.9 62.38 159.1 54.93 158.1 55.98 154.76 59.56"/><path id="path94" d="M113.09,65.39l0,0Z"/><path id="path96" d="M132.07,68.62c.27.27,0,.08.32.28l2.05-1.44a6.59,6.59,0,0,1-.88-.7c-3-2.71-2.2-8.8-.28-12.13-5.07,4.09-4.8,10.39-1.21,14"/><path id="path98" d="M156.34,71.9A29.37,29.37,0,0,1,144,77.75a24.68,24.68,0,0,1-3.27.53c-8.09.8-14.87-2.92-17.44-8.94a12.94,12.94,0,0,1-.76-2.25,16,16,0,0,1,2.33-13.15c.25-.35.51-.68.79-1-.13.11-.26.2-.37.3a17,17,0,0,0-2.54,2.83,15.86,15.86,0,0,0-2.32,13.14,12.62,12.62,0,0,0,.74,2.25c2.57,6,9.36,9.75,17.43,9a24.15,24.15,0,0,0,3.28-.55A29.14,29.14,0,0,0,154.21,74a25,25,0,0,0,2.4-2.23l-.07-.06a1.8,1.8,0,0,0-.2.18"/><polygon id="polygon100" points="99.37 56.57 108.4 43.88 108.03 43.54 99.32 55.78 99.37 56.57"/><polygon id="polygon102" points="159.1 54.93 157.9 62.38 156.34 60.98 155.77 64.49 152.63 61.67 155.98 58.12 156.99 57.05 156.96 57.2 158.1 55.98 159.1 54.93"/><polygon id="polygon104" points="147.94 34.02 151.1 32.67 145.32 25.25 143.43 27.89 147.94 34.02"/><path id="path106" d="M60.38,52.4c-14.59-17.78-40.9-8.22-50.35.1l.37.63a61.9,61.9,0,0,1,6.88-3.38c9.39-4,18.34-5.19,25.51-3.93a17,17,0,0,1,7.57,2.61,16.08,16.08,0,0,1,7.12,7.69C60,62,57.79,69.76,51.79,76.28,59.31,69.38,64.46,62.77,60.38,52.4Z"/><path id="path108" d="M90.16,73.12a8.58,8.58,0,0,0-.24-1A12.18,12.18,0,0,0,85,65.27c-3.75-2.55-9-3.07-14.19-.87a19.52,19.52,0,0,0-7,5.19,18.83,18.83,0,0,1,4.89-3.06c5.2-2.21,10.43-1.69,14.19.85a12.3,12.3,0,0,1,4.91,6.89c.09.32.16.65.24,1a15,15,0,0,1,.28,3.43,17.94,17.94,0,0,1-3.47,9.75c-.34.46-.69.9-1.06,1.32A19.86,19.86,0,0,0,87,86.31a17.83,17.83,0,0,0,3.48-9.77,14,14,0,0,0-.29-3.42"/><path id="path110" d="M75.79,68.78s2.12-2.12,2.09-2.12A4.32,4.32,0,0,0,74,69.28a5.17,5.17,0,0,1,1.81-.5"/><path id="path112" d="M80.83,71.86A3.75,3.75,0,0,1,81,73a3.69,3.69,0,0,1-.35,1.58c.43-.22,3.52-1.72,2.32-4.9.07.1-2.21,2.19-2.13,2.2"/><path id="path114" d="M68.66,73.63c0-1.31,2.24-4.48,2.94-5.54-3.54,2.25-5.06,5.28-5.06,7.67a7.69,7.69,0,0,0,7.9,7.39,10.08,10.08,0,0,0,8.2-5C81.36,79,78.11,81,76.41,81a7.51,7.51,0,0,1-7.75-7.35"/><polygon id="polygon116" points="98.93 77.38 98.98 93.95 101.61 94.1 101.09 75.21 98.93 77.38"/><polygon id="polygon118" points="83.83 45.83 83.89 47.3 96.35 43.59 97.27 59.46 99.35 56.55 98.91 40.62 83.83 45.83"/><polygon id="polygon120" points="121.51 51.51 109.8 40.77 108.4 43.88 118.7 53.56 121.51 51.51"/><path id="path122" d="M119.73,71.54,106,67l-2,2.12,13.7,5.48a19.08,19.08,0,0,0,6.86,7.26A22.37,22.37,0,0,0,134.16,85v6.76l2.13,1.06L137,82.65,119.73,71.54Z"/><path id="path124" d="M141.8,69.62a12.64,12.64,0,0,0,7-4.51c-1.26,1-7.56,2.41-8.62,2.77l-2.08,2.21a13.26,13.26,0,0,0,3.7-.47"/><path id="path126" d="M135.66,46.25c-6.22.82-9.47,6-10,6.68a20.31,20.31,0,0,1,8.42-4.15c7.7-1.86,14.49.48,18.69,5.67l2.6-2.2c-4.16-5.1-12-7.85-19.71-6"/><path id="path128" d="M156.54,71.72c.75-.64,2.08-1.27,2.79-2L151,62.26a21.7,21.7,0,0,1-2,2.68l7.54,6.78Z"/><path id="path130" d="M199.31,91.67c-8.75-7.18-8.22-22.6-3.93-27.49L191.53,40l-8.43,1.09-.37,2.13h6.37l3.38,21.91c-4.3,4.91-6.37,11.48-4.94,17.49a15.93,15.93,0,0,0,8.08,10.59,11.56,11.56,0,0,0,1.28.61l0,.32,2.51.4s.26-2.69-.15-2.9Z"/><polygon id="polygon132" points="165.7 43.59 165.34 45.71 174.95 45.71 177.78 61.23 179.91 59.08 177.67 42.7 165.7 43.59"/><polygon id="polygon134" points="182.15 73.72 179.05 81.73 179.82 83.82 184.26 71.61 182.15 73.72"/><polygon id="polygon136" points="172.94 68.67 170.8 70.8 168.51 85.28 170.71 86.12 172.94 68.67"/><path id="path138" d="M216.1,64a11.31,11.31,0,0,1,3.14,3.39,12,12,0,0,1,1.43,3.47,15.83,15.83,0,0,1-3,12.84c-.28.38-.59.75-.88,1.11,1.12-1,14.77-11,1.44-24.26-14.67-4.83-20.23,4.74-20.75,5.34a18.38,18.38,0,0,1,5.28-3.14c5-1.88,9.85-1.23,13.31,1.25"/><path id="path140" d="M208.71,65c0,.09,2.1-2.16,2.15-2.16-2.61.11-3.87,1.37-3.74,2a3.41,3.41,0,0,0-.38.7,5.9,5.9,0,0,1,2-.49"/><path id="path142" d="M213.62,68.28a4.39,4.39,0,0,1,.13,1.11,4,4,0,0,1-.35,1.39,3.41,3.41,0,0,0,2.35-4.64c0,.1-2.17,2.14-2.13,2.14"/><path id="path144" d="M206.69,79.25c2.92.13,6.16-1.67,8.48-4.85-5.95,1.22-12.22-8.71-11.59-9.68-2.25,1.63-4.24,4.78-4.33,7a7.45,7.45,0,0,0,7.44,7.55"/><polygon id="polygon146" points="239.61 105.4 241.02 106.34 258.21 54.76 245.34 51.78 245.18 54.8 255.56 57.11 239.61 105.4"/><polygon id="polygon148" points="219.2 46.25 219.31 49.13 232.99 51.88 238.25 76.85 240.39 74.71 235.37 49.48 219.2 46.25"/><polygon id="polygon150" points="229.72 74.71 225.96 96.01 228.13 96.71 231.87 72.61 229.72 74.71"/><polygon id="polygon152" points="52.23 103.82 45.83 80.63 43.49 82.27 49.42 104.49 52.23 103.82"/><path id="path154" d="M50.57,69.6A48.32,48.32,0,0,1,44,75.41l-1.13-3.63-2.48-8-1.57-5.39-1.54,2,1.57,5.4,2.48,8,1.12,3.65c2.55-1.65,6.27-4.73,8.16-7.8"/><path id="path156" d="M141.66,55.23c-2-.78-4.88-.54-6.42,1.15A11.62,11.62,0,0,0,134,58.21a6.81,6.81,0,0,1,5.9-.81l1.8-2.17Z"/><g id="g160"><g id="g162"><path id="path164" class="cls-3" d="M51.93,62.39c-.88-4.71-7-7.31-13.15-4l1.57,5.4,2.48,8L44,75.42C48.55,72.47,53.15,68.92,51.93,62.39Zm-6.07,7.25c-.67-2.18-2.13-6.88-2.13-6.88s-.29-1-.64-2.18a5.9,5.9,0,0,1,3.57.35,3.08,3.08,0,0,1,1.79,2.12C49,65.76,48.05,67.69,45.86,69.64Z"/></g></g><g id="g166"><g id="g168"><path id="path170" class="cls-4" d="M144.42,54.91a8.38,8.38,0,1,0-11.31,12.37,6.43,6.43,0,0,0,.88.7L145,55.5C144.82,55.3,144.62,55.1,144.42,54.91ZM134,63.69a5.41,5.41,0,0,1,6.7-7.64Z"/></g></g><polygon id="polygon172" points="159.14 53.54 153.04 59.42 158.84 64.63 159.14 53.54"/><path id="path174" class="cls-5" d="M215.74,66.14a4.26,4.26,0,0,1,.13,1.13,4.77,4.77,0,0,1-9.47-.39,4.45,4.45,0,0,1,4.43-4,8.23,8.23,0,0,0-1.43-.17c-4.37-.19-7.94,2.91-8.09,6.76a7.8,7.8,0,0,0,15.56.64,6.78,6.78,0,0,0-1.13-4"/><path id="path183" class="cls-6" d="M83.12,70.85a4.77,4.77,0,0,1-9.47,0,4.43,4.43,0,0,1,4.26-4.19,8.36,8.36,0,0,0-1.43-.13c-4.37,0-7.82,3.24-7.82,7.1a7.8,7.8,0,0,0,15.57,0A6.56,6.56,0,0,0,83,69.75a3.57,3.57,0,0,1,.17,1.1"/><g id="g185"><g id="g187"><path id="path196" class="cls-7" d="M242.93,47.2l-1.94,8-1.8-8.86-24-5.28.17,13.34,3.62.82-.26,2.4a.3.3,0,0,1-.11-.07,18.67,18.67,0,0,0-15.27-.63,21.07,21.07,0,0,0-4.86,2.63l-3.62-22.86h-16l-.44,2.63h-16.8l-1.91,11.75-1.4-1.72a21.47,21.47,0,0,0-16.51-7.89l14.27-7.67-9.95-14.85-18,20.71,3.1,3.78a23.74,23.74,0,0,0-7.3,4.65L108.57,34.41l-5.39,10.32.21-9.92L79.3,42.51l.62,12.94L84,54.39l.6,6.56a19.43,19.43,0,0,0-15.53.15,22.4,22.4,0,0,0-4.32,2.47,18.39,18.39,0,0,0-.83-11.45,20.67,20.67,0,0,0-8.85-9.75,21.17,21.17,0,0,0-9.35-3.32c-8.34-1.46-18.35,0-28.2,4.23a70.35,70.35,0,0,0-10,5.24L3.64,51,6,54.89l7.22,12.2s2.2,3.74,2.22,3.74l3.9-1.92.55-.25,17.93,40,1.73,3.85,4-1.29,9.7-3.11,4.26-1.35-1.13-4.33L51.21,82.67a41.59,41.59,0,0,0,4.14-3.48,17.84,17.84,0,0,0,.52,7,16.63,16.63,0,0,0,8.84,10.69,19.21,19.21,0,0,0,15.77,0,23,23,0,0,0,7-4.74l.73,7.88,17-2.51,0-15.24,35.52,17.56v-17a28.17,28.17,0,0,0,4.34-.7,36.23,36.23,0,0,0,10.23-4l-1.49,9.12,19.15,3L174,83.42l5,9.23,3-5.89,1.12,9.68,21.71,3.82L203.75,93a19.63,19.63,0,0,0,9.13-1.2,20.71,20.71,0,0,0,2.1-.94l-.87,7.77,14.45,2,.11,5.93,15.07,4.73,19.61-59.13-20.42-5ZM158.1,56l1-1.06-1.2,7.45-3.14-2.83ZM145.38,25.54l5.26,7.14-15,7.46-1-1.58ZM45.8,80.63l6,23-9.71,3.11L22.17,62.26c-1.09.57-3.09,1.52-4.93,2.42L10,52.49a64,64,0,0,1,9.36-4.87c9.4-4,18.36-5.18,25.53-3.92a17.06,17.06,0,0,1,7.57,2.6A16.17,16.17,0,0,1,59.61,54C63.08,62,57.28,73.55,45.8,80.63Zm44.65-4.09A17.77,17.77,0,0,1,87,86.3a19.41,19.41,0,0,1-8.1,6.55c-8.42,3.57-16.85,0-19.1-8-2.18-7.73,2.9-16.94,11.06-20.45C76,62.2,81.27,62.72,85,65.26a12.17,12.17,0,0,1,4.9,6.89,7.64,7.64,0,0,1,.24,1A14,14,0,0,1,90.45,76.54Zm45.84,16.27L101.05,75.19l.06,18.46L92,94.9l-.64-7.61a20.47,20.47,0,0,0,2.38-15.73,16.55,16.55,0,0,0-4.32-7.35L88.11,48.69,84,49.75l-.19-3.92,14.64-4.36.9,15.1,10.78-15.15,10.55,10L106,67l13.85,5.48a19,19,0,0,0,6.87,7.25,22.31,22.31,0,0,0,9.61,3.16v9.93ZM118,67.28l-4.9-1.89L117.66,61A21.61,21.61,0,0,0,118,67.28Zm38.35,4.62A29.37,29.37,0,0,1,144,77.75a24.68,24.68,0,0,1-3.27.53c-8.09.8-14.87-2.92-17.44-8.94a12.94,12.94,0,0,1-.76-2.25,16,16,0,0,1,2.33-13.15,16.23,16.23,0,0,1,2.54-2.83,20.14,20.14,0,0,1,8.8-4.46c7.7-1.86,14.48.49,18.64,5.59L140.17,67.86a10.52,10.52,0,0,0,3.75-.35,12.91,12.91,0,0,0,7.17-4.73L157,68.06l1.77,1.6C158,70.46,157.15,71.21,156.34,71.9Zm31.13,20.84-3.2-21.15-4.51,11.67L173,68.68h-.08l-2.67,16.88L159,83.6l1.58-9.42c.43-.4.85-.8,1.26-1.22l3.65-3.76L161.93,66l3.77-22.44h11.37l2.84,15.54,3.19-18h8.13l3.37,21.93c-4.29,4.89-6.38,11.46-4.94,17.47a16,16,0,0,0,8.08,10.61c.41.21.84.42,1.28.6l.43,2.84-12-1.83Zm28.07-6.89A17.55,17.55,0,0,1,211.46,88a15.25,15.25,0,0,1-8.36.82,12.45,12.45,0,0,1-4.85-2.06,12.09,12.09,0,0,1-4.66-7.09,15.1,15.1,0,0,1,1.89-10.94,19.78,19.78,0,0,1,3.72-4.58,18.28,18.28,0,0,1,5.71-3.52c5-1.86,9.86-1.22,13.31,1.26a11.68,11.68,0,0,1,3.15,3.38,12.12,12.12,0,0,1,1.42,3.47,15.73,15.73,0,0,1-3,12.84A18.93,18.93,0,0,1,215.54,85.85Zm25.36,19.93-8.33-2.48-.72-30.72-4.19,23.7-9.09-1.45.65-6.82c5.93-5,9.08-12.93,7.36-20.1a15.8,15.8,0,0,0-4.69-8l.76-8-3.43-.92.23-4.29,15.65,3.14,5.27,25,5.4-22.38L257.68,55l-16.78,50.8Z"/></g></g><ellipse class="cls-8" cx="140.76" cy="132.9" rx="105.72" ry="24.12"/><path class="cls-1" d="M83.46,143.91c-6.72,0-10.77-4-10.77-11s4-11,10.63-11c5.28,0,9.24,3.06,9.8,7.39H87.64a4.25,4.25,0,0,0-4.31-3c-3.14,0-5,2.41-5,6.55s2,6.77,5.24,6.77c2.5,0,4.25-1.44,4.41-3.58v-.33H84v-3.71h9.34v2.61C93.35,140.36,89.66,143.91,83.46,143.91Z"/><path class="cls-1" d="M108.13,138.87H101l-1.39,4.67H94l7.33-21.28h6.78l7.32,21.28H109.5ZM102.07,135h5l-2.42-8.2h-.12Z"/><path class="cls-1" d="M132,143.54H117.47V122.26H123v16.92h9Z"/><path class="cls-1" d="M149.12,143.54H134.57V122.26h5.54v16.92h9Z"/><path class="cls-1" d="M166.59,143.54H151.66V122.26h14.93v4.37H157.2v4.23H166v4H157.2v4.34h9.39Z"/><path class="cls-1" d="M175.26,143.54h-5.54V122.26h9.33c5.44,0,8.37,2.63,8.37,7a6.38,6.38,0,0,1-3.73,6l4.36,8.24h-6.22l-3.75-7.44h-2.82Zm0-11.15h3.25c2,0,3.24-1.16,3.24-3a3,3,0,0,0-3.26-3h-3.23Z"/><path class="cls-1" d="M195.78,143.54v-7.31l-7.5-14h5.95l4.33,8.85h.11l4.31-8.85h5.85l-7.51,14v7.31Z"/><path class="cls-9" d="M176.14,11.35a14.59,14.59,0,0,1,4.45.71.87.87,0,0,0,.83-.1,24.14,24.14,0,0,1,5.84-2.68A22.09,22.09,0,0,1,194,8.07c.28,0,.63-.05.75.26s-.17.48-.34.68a10.42,10.42,0,0,1-2.17,1.86A41.74,41.74,0,0,1,184.3,15c-.39.15-.46.3-.34.68a8.08,8.08,0,0,1,.38,2.12c0,.42.13.48.5.3a33.56,33.56,0,0,1,6.71-2.4A39.61,39.61,0,0,1,196,15c.45-.05.6.1.46.54-.21.63-.4,1.28-.63,1.91a39.61,39.61,0,0,1-2.33,5.4c-.17.32-.31.64-.79.65-1.65.05-3.29.06-4.93.27-.53.07-.56.08-.39.61.4,1.21.78,2.43,1.2,3.63.15.43,0,.64-.38.8-.76.3-1.51.65-2.27.95-.43.16-.49.52-.52.89s.34.34.57.41a1.93,1.93,0,0,1,.84.43c.22.23.36.14.52-.06a7,7,0,0,1,.65-.77c.19-.17.46-.29.63,0a2.55,2.55,0,0,1,.39,1.22,9.56,9.56,0,0,1-.25,2.14,12.82,12.82,0,0,1-1.83,4.65c-.31.43-.64.87-1.27.51a.28.28,0,0,0-.2,0c-1.43.56-2.92.25-4.38.3-.32,0-.59-.1-.64.35a.36.36,0,0,1-.21.18c-.45-.29-.85.23-1.35,0-.22-.09-.63.08-.95-.1,0,0-.15.05-.2.11a.39.39,0,0,1-.65,0,.67.67,0,0,0-.77-.18.74.74,0,0,1-.39,0,.51.51,0,0,0-.62.17c-.19.2-.41.48-.67.05-.07-.11-.17-.09-.26,0-.52.37-1,.1-1.48-.08a4.19,4.19,0,0,0-2.15-.39,11.1,11.1,0,0,1-2.7-.08,1,1,0,0,0-.82.13.75.75,0,0,1-1.12-.11,6.24,6.24,0,0,1-1.33-2.06,13.49,13.49,0,0,1-1.06-3.91,2.74,2.74,0,0,1,.34-2c.2-.29.39-.3.68-.14a2.09,2.09,0,0,1,.94,1.07c.14.29.28.33.52.07a3.67,3.67,0,0,1,1.14-.89,1,1,0,0,0,.49-.47,12.75,12.75,0,0,0,1.4-4.59.89.89,0,0,0-.25-.72,10.49,10.49,0,0,1-1.38-1.66,4.1,4.1,0,0,1-.63-3.35c.31-1.23.77-2.43,1-3.69a10.13,10.13,0,0,1,.6-2.38,2.93,2.93,0,0,0,.22-1.43,18.4,18.4,0,0,1,.1-3.71,23.46,23.46,0,0,1,1.7-6.49,10.06,10.06,0,0,1,1.69-2.9c.12-.15.24-.38.47-.31s.27.32.31.54a31.06,31.06,0,0,1,.25,4.31c0,1,0,2,0,3a36.44,36.44,0,0,1-.28,3.72A16.47,16.47,0,0,1,176.14,11.35Zm-6,20.9a16.54,16.54,0,0,0,2.29,5.38c.12.21.25.43.39.64.25.37.35.73,0,1.07.17.12.27,0,.38-.05s.36-.47.33.09c0,.15.11.13.2.06s.11-.21.24-.24.1.28.17.38c.31.12.63-.76,1,0,.25-.13.34-.62.79-.37.09,0,.15-.11.19-.2a1.48,1.48,0,0,0,.12-.69,38.48,38.48,0,0,1,.12-3.87,10.24,10.24,0,0,0-.48-2.56,3.78,3.78,0,0,1-.13-.84c.48.4.49,1,.78,1.59a6.76,6.76,0,0,1,.82-2.56,49.71,49.71,0,0,0-.75,9.19c.23-.16.49,0,.72.24s.28.15.4,0,.11-.15.13-.14a2.79,2.79,0,0,0,1.25.09c.15,0,.24.12.38-.07s.39.07.65,0c-.38-.51-.15-.94.11-1.38a24.46,24.46,0,0,0,3.08-7.43c0-.07,0-.14.14-.16a1.33,1.33,0,0,1,0,.88,16.34,16.34,0,0,1-1.75,4.73c-.41.83-.86,1.63-1.31,2.44-.16.29-.19.42.23.43a24.31,24.31,0,0,0,4.18,0c.7-.09.69-.1.68-.82a2.75,2.75,0,0,1,.19-1.3h.13c.05.5.1,1,.16,1.49,0,.19-.06.47.17.53s.34-.18.46-.33A9.92,9.92,0,0,0,188.09,35c.22-.8.36-1.62.54-2.43-.29-.08-.29.26-.46.26s0-.27-.12-.38-.21.4-.5.38c-.06-.4.17-.77.16-1.18a24,24,0,0,0-1.4,2.41,2.43,2.43,0,0,1,.41-1.61c.22-.38.08-.59-.2-.79a2,2,0,0,0-2.19,0c-.23.11-.41.34-.8.34a1.83,1.83,0,0,1,1.08-.87c.33-.13.37-.25.23-.59a21.32,21.32,0,0,1-1.43-4.8,4.82,4.82,0,0,1-3,2c0-.3.21-.29.34-.35a5.08,5.08,0,0,0,3.21-4.95c0-1.34.1-2.68.06-4a14.32,14.32,0,0,0-.4-2.69c-.08-.34-.21-.54-.6-.45-.13,0-.36.11-.4-.07s.19-.18.32-.22a38,38,0,0,0,7.25-3.31,2,2,0,0,0,.76-1.77c0-1.18,0-1.18-1.11-.93a25.18,25.18,0,0,0-8.41,3.45c-.4.26-.77.56-1.18.85-.11-.27.07-.39.18-.51.27-.28.14-.37-.16-.45a15.47,15.47,0,0,0-8.24-.1l-.34.08a1.11,1.11,0,0,1-.23,0,1,1,0,0,1,.71-.47.67.67,0,0,0,.47-.64,53.73,53.73,0,0,0,.27-6.83c0-.32-.09-.39-.4-.36A2.82,2.82,0,0,0,170,6a24.34,24.34,0,0,0-.86,7c0,.14,0,.27,0,.41s0,0,.06.07l.62-.55s.06,0,.25,0c-1.81,2.09-1.57,4.8-2.5,7.19a1.86,1.86,0,0,1,1.43.54,2,2,0,0,1,.43,1.11c.11,1-.29,1.56-1.52,2.14a12.72,12.72,0,0,0,5,4.12c-.48.11-.89,0-1.71-.53-.5-.31-1-.65-1.47-1a2.16,2.16,0,0,0-.17.93,12.08,12.08,0,0,1-1.19,3.5c-.18.36-.12.48.27.54a1.1,1.1,0,0,1,.84.61c-.18.14-.28,0-.39,0a1.79,1.79,0,0,0-2.13.31c-.89.79-.89.77-.47,1.87a4.21,4.21,0,0,1,.45,2.3,31.26,31.26,0,0,0-1.75-4.17c-.14.56.2,1.05.06,1.67-.55-.71-.45-1.51-.7-2.33a12.33,12.33,0,0,0,.15,2.38c-.38-.16-.31-.52-.57-.79a11.17,11.17,0,0,0,2,5.57c.5.64.63.6,1-.08.07-.14.21-.27.26-.07s.34.28.56.3a20.75,20.75,0,0,0,4.17,0c.5,0,.53-.12.28-.55a23.89,23.89,0,0,1-2.37-4.81,15.48,15.48,0,0,1-.68-3.7,7.82,7.82,0,0,1,.05-1h.16C169.77,30.1,169.91,31.18,170.11,32.25ZM186,29.17c.63-.27,1.26-.54,1.91-.77.33-.12.38-.27.28-.58-.44-1.3-.85-2.6-1.3-3.9-.15-.42-.08-.6.39-.64,1.74-.15,3.48-.31,5.23-.32a.68.68,0,0,0,.69-.43A48.06,48.06,0,0,0,196,15.72c.11-.34,0-.43-.32-.39a31.41,31.41,0,0,0-10.89,3.13.6.6,0,0,0-.37.61,22.73,22.73,0,0,1-.3,5,.56.56,0,0,0,.17.5c.6.79,1.2,1.57,1.78,2.37.38.53.35.55-.2.85l-.26.14c-1.22.67-1.22.68-.48,2C185.2,29.46,185.59,29.32,186,29.17Zm-18.54-6.25a.6.6,0,0,0,.89.41,1.6,1.6,0,0,0,.74-1.58,1.24,1.24,0,0,0-1-1.18c-.38-.06-.62.08-.67.47a3.31,3.31,0,0,0-.07,1A2.25,2.25,0,0,0,167.41,22.92Zm16.37,3.17a18,18,0,0,1,.52,1.77c.08.31.21.37.5.24,1.1-.52,1.11-.51.44-1.5-.38-.56-.78-1.12-1.18-1.68,0,0-.05,0-.1-.07A1.22,1.22,0,0,0,183.78,26.09Z"/><path class="cls-10" d="M169.44,29a7.82,7.82,0,0,0-.05,1,15.48,15.48,0,0,0,.68,3.7,23.89,23.89,0,0,0,2.37,4.81c.25.43.22.5-.28.55A20.75,20.75,0,0,1,168,39c-.22,0-.46,0-.56-.3s-.19-.07-.26.07c-.4.68-.53.72-1,.08a11.17,11.17,0,0,1-2-5.57c.26.27.19.63.57.79a12.33,12.33,0,0,1-.15-2.38c.25.82.15,1.62.7,2.33.14-.62-.2-1.11-.06-1.67a31.26,31.26,0,0,1,1.75,4.17,4.21,4.21,0,0,0-.45-2.3c-.42-1.1-.42-1.08.47-1.87a1.79,1.79,0,0,1,2.13-.31c.11,0,.21.19.39,0a1.1,1.1,0,0,0-.84-.61c-.39-.06-.45-.18-.27-.54a12.08,12.08,0,0,0,1.19-3.5,2.16,2.16,0,0,1,.17-.93c.5.33,1,.67,1.47,1,.82.51,1.23.64,1.71.53a12.72,12.72,0,0,1-5-4.12c1.23-.58,1.63-1.15,1.52-2.14a2,2,0,0,0-.43-1.11,1.86,1.86,0,0,0-1.43-.54c.93-2.39.69-5.1,2.5-7.19-.19,0-.24,0-.25,0l-.62.55s-.06-.05-.06-.07,0-.27,0-.41A24.34,24.34,0,0,1,170,6a2.82,2.82,0,0,1,2.48-2.06c.31,0,.4,0,.4.36a53.73,53.73,0,0,1-.27,6.83.67.67,0,0,1-.47.64,1,1,0,0,0-.71.47,1.11,1.11,0,0,0,.23,0l.34-.08a15.47,15.47,0,0,1,8.24.1c.3.08.43.17.16.45-.11.12-.29.24-.18.51.41-.29.78-.59,1.18-.85a25.18,25.18,0,0,1,8.41-3.45c1.14-.25,1.16-.25,1.11.93a2,2,0,0,1-.76,1.77,38,38,0,0,1-7.25,3.31c-.13,0-.36,0-.32.22s.27.1.4.07c.39-.09.52.11.6.45a14.32,14.32,0,0,1,.4,2.69c0,1.34,0,2.68-.06,4a5.08,5.08,0,0,1-3.21,4.95c-.13.06-.35.05-.34.35a4.82,4.82,0,0,0,3-2,21.32,21.32,0,0,0,1.43,4.8c.14.34.1.46-.23.59a1.83,1.83,0,0,0-1.08.87c.39,0,.57-.23.8-.34a2,2,0,0,1,2.19,0c.28.2.42.41.2.79a2.43,2.43,0,0,0-.41,1.61,24,24,0,0,1,1.4-2.41c0,.41-.22.78-.16,1.18.29,0,.25-.36.5-.38s-.19.37.12.38.17-.34.46-.26c-.18.81-.32,1.63-.54,2.43a9.92,9.92,0,0,1-1.57,3.51c-.12.15-.24.39-.46.33s-.15-.34-.17-.53c-.06-.49-.11-1-.16-1.49h-.13a2.75,2.75,0,0,0-.19,1.3c0,.72,0,.73-.68.82a24.31,24.31,0,0,1-4.18,0c-.42,0-.39-.14-.23-.43.45-.81.9-1.61,1.31-2.44a16.34,16.34,0,0,0,1.75-4.73,1.33,1.33,0,0,0,0-.88c-.13,0-.13.09-.14.16a24.46,24.46,0,0,1-3.08,7.43c-.26.44-.49.87-.11,1.38-.26,0-.47-.27-.65,0s-.23.07-.38.07a2.79,2.79,0,0,1-1.25-.09s-.1.08-.13.14-.25.21-.4,0-.49-.4-.72-.24a49.71,49.71,0,0,1,.75-9.19,6.76,6.76,0,0,0-.82,2.56c-.29-.57-.3-1.19-.78-1.59a3.78,3.78,0,0,0,.13.84,10.24,10.24,0,0,1,.48,2.56,38.48,38.48,0,0,0-.12,3.87,1.48,1.48,0,0,1-.12.69c0,.09-.1.24-.19.2-.45-.25-.54.24-.79.37-.32-.8-.64.08-1,0-.07-.1,0-.29-.17-.38s-.15.16-.24.24-.21.09-.2-.06c0-.56-.19-.19-.33-.09s-.21.17-.38.05c.39-.34.29-.7,0-1.07-.14-.21-.27-.43-.39-.64a16.54,16.54,0,0,1-2.29-5.38c-.2-1.07-.34-2.15-.51-3.22Zm1.62-8.45c.5.23.56.68.67,1.14a10.82,10.82,0,0,0,1.39,3.37c1,1.59,2.21,1.57,3.18-.07a8.77,8.77,0,0,0,1.11-3.56,1,1,0,0,1,.37-.84c.07-.05.16-.14.1-.25s-.18,0-.25,0a2,2,0,0,1-2.06-.14,2.52,2.52,0,0,0-3.1,0,1.4,1.4,0,0,1-1.45,0C171,20.45,171,20.55,171.06,20.57Zm8.61-1.21a1.54,1.54,0,0,0,1.47-1.6,1.54,1.54,0,1,0-1.47,1.6Zm-9.1-.14A1.61,1.61,0,0,0,172,17.59a1.53,1.53,0,0,0-1.52-1.49A1.58,1.58,0,0,0,169,17.73,1.5,1.5,0,0,0,170.57,19.22Zm13.11,3a1.92,1.92,0,0,0-2-1.76A1.85,1.85,0,0,0,180,22.39a1.82,1.82,0,0,0,1.91,1.77A1.87,1.87,0,0,0,183.68,22.24ZM174.06,19c.21,0,.43-.17.4-.36s-.35-.24-.57-.25-.3,0-.3.24S173.78,19.05,174.06,19Z"/><path class="cls-11" d="M185.09,29.94c.11-.48.5-.62.86-.77.63-.27,1.26-.54,1.91-.77.33-.12.38-.27.28-.58-.44-1.3-.85-2.6-1.3-3.9-.15-.42-.08-.6.39-.64,1.74-.15,3.48-.31,5.23-.32a.68.68,0,0,0,.69-.43A48.06,48.06,0,0,0,196,15.72c.11-.34,0-.43-.32-.39a31.41,31.41,0,0,0-10.89,3.13.6.6,0,0,0-.37.61,22.73,22.73,0,0,1-.3,5,.56.56,0,0,0,.17.5c.6.79,1.2,1.57,1.78,2.37.38.53.35.55-.2.85l-.26.14C184.35,28.61,184.35,28.62,185.09,29.94Z"/><path class="cls-12" d="M167.26,22a2.25,2.25,0,0,0,.15.89.6.6,0,0,0,.89.41,1.6,1.6,0,0,0,.74-1.58,1.24,1.24,0,0,0-1-1.18c-.38-.06-.62.08-.67.47A3.31,3.31,0,0,0,167.26,22Z"/><path class="cls-13" d="M184,24.85a1.22,1.22,0,0,0-.18,1.24,18,18,0,0,1,.52,1.77c.08.31.21.37.5.24,1.1-.52,1.11-.51.44-1.5-.38-.56-.78-1.12-1.18-1.68C184,24.89,184,24.88,184,24.85Z"/><path class="cls-9" d="M172.47,20.27a2.52,2.52,0,0,1,3.1,0,2,2,0,0,0,2.06.14c.07,0,.18-.15.25,0s0,.2-.1.25a1,1,0,0,0-.37.84A8.77,8.77,0,0,1,176.3,25c-1,1.64-2.14,1.66-3.18.07a10.82,10.82,0,0,1-1.39-3.37c-.11-.46-.17-.91-.67-1.14-.06,0-.11-.12,0-.27A1.4,1.4,0,0,0,172.47,20.27Zm.12,2.74a.27.27,0,0,0,0,.32,6.36,6.36,0,0,0,1.2,2.12,1.09,1.09,0,0,0,1.81,0,5.71,5.71,0,0,0,1.11-2.23.32.32,0,0,0-.09-.36,2.89,2.89,0,0,0-2-.9A3.29,3.29,0,0,0,172.59,23Z"/><path class="cls-9" d="M179.57,16.27a1.52,1.52,0,0,1,1.57,1.49,1.54,1.54,0,1,1-3.08.1A1.5,1.5,0,0,1,179.57,16.27Zm-.13.42a.51.51,0,1,0,.14,1c.33,0,.44-.28.43-.57A.48.48,0,0,0,179.44,16.69Z"/><path class="cls-9" d="M170.5,16.1A1.53,1.53,0,0,1,172,17.59a1.61,1.61,0,0,1-1.45,1.63A1.5,1.5,0,0,1,169,17.73,1.58,1.58,0,0,1,170.5,16.1Zm.3,1.49a.48.48,0,0,0,.46-.56.46.46,0,0,0-.55-.46.53.53,0,0,0-.47.54A.5.5,0,0,0,170.8,17.59Z"/><path class="cls-9" d="M180,22.39a1.85,1.85,0,0,1,1.74-1.91,1.92,1.92,0,0,1,2,1.76,1.87,1.87,0,0,1-1.79,1.92A1.82,1.82,0,0,1,180,22.39Zm1.9,1.37a1.48,1.48,0,0,0,1.41-1.49,1.57,1.57,0,0,0-1.59-1.44,1.46,1.46,0,0,0-1.33,1.54A1.39,1.39,0,0,0,181.88,23.76Z"/><path class="cls-9" d="M173.59,18.65c.1.19.19.4.47.37s.43-.17.4-.36-.35-.24-.57-.25S173.59,18.44,173.59,18.65Z"/><path class="cls-14" d="M174.58,21.93a3.29,3.29,0,0,0-2,1.08.27.27,0,0,0,0,.32,6.36,6.36,0,0,0,1.2,2.12,1.09,1.09,0,0,0,1.81,0,5.71,5.71,0,0,0,1.11-2.23.32.32,0,0,0-.09-.36A2.89,2.89,0,0,0,174.58,21.93Z"/><path class="cls-15" d="M180,17.14a.51.51,0,1,0-.43.57C179.91,17.67,180,17.43,180,17.14Z"/><path class="cls-15" d="M170.24,17.11a.5.5,0,0,0,.56.48.48.48,0,0,0,.46-.56.46.46,0,0,0-.55-.46A.53.53,0,0,0,170.24,17.11Z"/><path class="cls-12" d="M180.37,22.37a1.39,1.39,0,0,0,1.51,1.39,1.48,1.48,0,0,0,1.41-1.49,1.57,1.57,0,0,0-1.59-1.44A1.46,1.46,0,0,0,180.37,22.37Z"/></g></g></svg>