<svg xmlns="http://www.w3.org/2000/svg" xmlns:xlink="http://www.w3.org/1999/xlink" viewBox="0 0 269.47 148.2"><defs><style>.cls-1{fill:url(#Degradado_sin_nombre_7);}.cls-2{fill:url(#Degradado_sin_nombre_7-2);}.cls-3{fill:url(#Degradado_sin_nombre_3);}.cls-4{fill:#0a72b9;}.cls-5{fill:url(#Degradado_sin_nombre_3-2);}.cls-6{fill:#222e5d;}.cls-7{fill:url(#Degradado_sin_nombre_3-3);}.cls-8{fill:url(#Degradado_sin_nombre_5);}.cls-9{fill:#32286e;}.cls-10{fill:#21396d;}.cls-11{fill:url(#Degradado_sin_nombre_5-2);}.cls-12{fill:url(#Degradado_sin_nombre_7-3);}.cls-13{fill:url(#Degradado_sin_nombre_7-4);}.cls-14{fill:#feca0d;}.cls-15{fill:#7d8069;}.cls-16{fill:#c7a00d;}.cls-17{fill:#3d5ba7;}.cls-18{fill:#3668b0;}.cls-19{fill:#222f5e;}.cls-20{fill:#3567b0;}.cls-21{fill:url(#Degradado_sin_nombre_9);}.cls-22{fill:url(#Degradado_sin_nombre_9-2);}.cls-23{fill:#010101;}.cls-24{fill:#c7a00f;}.cls-25{fill:#feca08;}.cls-26{fill:#2e71b8;}.cls-27{fill:none;}</style><linearGradient id="Degradado_sin_nombre_7" x1="98.62" y1="10.11" x2="132.59" y2="10.11" gradientUnits="userSpaceOnUse"><stop offset="0" stop-color="#1560a2"/><stop offset="1" stop-color="#222e5d"/></linearGradient><linearGradient id="Degradado_sin_nombre_7-2" x1="81.67" y1="122.48" x2="213.02" y2="122.48" xlink:href="#Degradado_sin_nombre_7"/><linearGradient id="Degradado_sin_nombre_3" x1="435.11" y1="496.14" x2="425.1" y2="514.81" gradientTransform="matrix(1, 0, 0, -1, -421.81, 555.8)" gradientUnits="userSpaceOnUse"><stop offset="0" stop-color="#0971b7"/><stop offset="1" stop-color="#222e5d"/></linearGradient><linearGradient id="Degradado_sin_nombre_3-2" x1="557.29" y1="534.28" x2="570" y2="547.9" xlink:href="#Degradado_sin_nombre_3"/><linearGradient id="Degradado_sin_nombre_3-3" x1="501.81" y1="511.57" x2="500.3" y2="524.3" xlink:href="#Degradado_sin_nombre_3"/><linearGradient id="Degradado_sin_nombre_5" x1="640.71" y1="514.02" x2="640.1" y2="525.52" gradientTransform="matrix(1, 0, 0, -1, -421.81, 555.8)" gradientUnits="userSpaceOnUse"><stop offset="0" stop-color="#145e9f"/><stop offset="1" stop-color="#222e5d"/></linearGradient><linearGradient id="Degradado_sin_nombre_5-2" x1="598.27" y1="530.59" x2="584.93" y2="509.36" xlink:href="#Degradado_sin_nombre_5"/><linearGradient id="Degradado_sin_nombre_7-3" x1="480.18" y1="496.54" x2="489.28" y2="478.65" gradientTransform="matrix(1, 0, 0, -1, -421.81, 555.8)" xlink:href="#Degradado_sin_nombre_7"/><linearGradient id="Degradado_sin_nombre_7-4" x1="445.85" y1="502.65" x2="456.38" y2="478.24" gradientTransform="matrix(1, 0, 0, -1, -421.81, 555.8)" xlink:href="#Degradado_sin_nombre_7"/><linearGradient id="Degradado_sin_nombre_9" x1="648.07" y1="963.96" x2="664" y2="963.96" gradientTransform="translate(-577.81 -901.74)" gradientUnits="userSpaceOnUse"><stop offset="0" stop-color="#3d5ba7"/><stop offset="0.93" stop-color="#2d74ba"/><stop offset="1" stop-color="#2d76bb"/></linearGradient><linearGradient id="Degradado_sin_nombre_9-2" x1="581.54" y1="955.76" x2="847.28" y2="955.76" xlink:href="#Degradado_sin_nombre_9"/></defs><g id="Capa_2" data-name="Capa 2"><g id="Capa_1-2" data-name="Capa 1"><path class="cls-1" d="M132.49,15.73l-2.1-2.54A.49.49,0,0,0,130,13a.47.47,0,0,0-.35.23,5.1,5.1,0,0,1-.78,1.06,3.45,3.45,0,0,1-.65.52l3.85-4.59a.46.46,0,0,0-.05-.63,5.65,5.65,0,0,0-1.9-1.12,7.1,7.1,0,0,0-4-.16,7.23,7.23,0,0,0-1.65.64A7.33,7.33,0,0,0,123,10.05a3.81,3.81,0,0,0-.69,1,.56.56,0,0,1,0-.08,7.26,7.26,0,0,0-1.08-1.27A6,6,0,0,0,120,8.81a5.44,5.44,0,0,0-4.32-.14l-.52-6.29a.42.42,0,0,0-.17-.31.43.43,0,0,0-.34-.1l-1.07.13L113.52.63a.42.42,0,0,0-.15-.31A.44.44,0,0,0,113,.21l-13.91.92a.46.46,0,0,0-.43.44L98.62,5a.48.48,0,0,0,.14.34.44.44,0,0,0,.33.13l5-.07.55,10.77a.47.47,0,0,0,.28.4,4.61,4.61,0,0,0,1.09.24,13.16,13.16,0,0,0,1.49.11c.54,0,1,0,1.35,0h.53a.47.47,0,0,0,.33-.14.46.46,0,0,0,.12-.34l-.48-11.26,1.42-.12.2,9.19a12,12,0,0,1,.15,1.31q0,.59.06,1.29c0,.49,0,1,0,1.41s0,.88.09,1.24a.47.47,0,0,0,.51.39l4.28-.5a.46.46,0,0,0,.4-.49c-.11-1.35-.16-2.49-.16-3.37,0-.43,0-.8,0-1.11a5.83,5.83,0,0,1,.11-.82,2.93,2.93,0,0,1,.19-.61,2.79,2.79,0,0,1,.56-.95,2,2,0,0,1,.31.57,15.45,15.45,0,0,1,.91,5.65c0,.54,0,.95,0,1.23a.5.5,0,0,0,.14.35.48.48,0,0,0,.32.13h0l3.64-.22a.45.45,0,0,0,.42-.38c.06-.36.1-.68.15-1a3.72,3.72,0,0,0,.78.36,6.87,6.87,0,0,0,2.2.33,10.24,10.24,0,0,0,2.72-.37,8.15,8.15,0,0,0,2.37-1,3.24,3.24,0,0,0,1.39-1.57A.46.46,0,0,0,132.49,15.73Z"/><path class="cls-2" d="M212.92,106.09a1.15,1.15,0,0,0-.65-.63l-9.37-3.65a1.2,1.2,0,0,0-.91,0,1.17,1.17,0,0,0-.62.67L197,114.61l-7.27-13.47a1.17,1.17,0,0,0-1.53-.51l-8.5,4a1.16,1.16,0,0,0-.62.7,1.18,1.18,0,0,0,.09.94l1.63,2.88a17.43,17.43,0,0,0-4.2,1.13l-.71-.82a1.18,1.18,0,0,0-1-.4l-8.82,1.1a1.16,1.16,0,0,0-1,1.23c0,.82.08,1.65.11,2.48a16.12,16.12,0,0,0-14.26,4.77l-1.17-19.2a1.19,1.19,0,0,0-.56-.93,1.16,1.16,0,0,0-1.07-.08l-7.22,3-.22-3.58a1.16,1.16,0,0,0-.55-.92,1.13,1.13,0,0,0-1.07-.09l-10.44,4.37a1.16,1.16,0,0,0-.69.86l-.2,1-.81,4.09a1.18,1.18,0,0,0,.33,1.07.71.71,0,0,0,.14.1,1.06,1.06,0,0,0,.54.21,1.08,1.08,0,0,0,.4,0l1.66-.37.08,1.59-5.78,2.6h-.09a12.52,12.52,0,0,0-8.85,2.21,13.48,13.48,0,0,0-3.92,4.53l-8.06-3a1.18,1.18,0,0,0-1.4.47l-1.57,2.45-.86,1.33a1.19,1.19,0,0,0-.06,1.18l.78,1.5a3.34,3.34,0,0,1-3-1,2.84,2.84,0,0,1-.48-.75c-1.12-2.42.09-6.5,2.38-8.07l.11-.06c2-1.31,4.13-.15,5.66,1.27.17.15.33.3.48.46a1.17,1.17,0,0,0,1.37.23l9.95-5.07a1.17,1.17,0,0,0,.56-1.47c-2-5.28-7.69-9.13-14.76-10-6.67-.88-12.8,1-16.38,5.08-.28.32-.55.64-.8,1-5.28,8.24-4.84,20.5,1,27.93a15.07,15.07,0,0,0,11.73,6,18.46,18.46,0,0,0,2.66-.14,19.19,19.19,0,0,0,1.91-.34c-.83,2.6-2.1,6.53-2.5,7.75a1.15,1.15,0,0,0,.13,1,1.19,1.19,0,0,0,.89.52l8.19.66,3.33.27a1.18,1.18,0,0,0,1.26-1l1.19-10a11.65,11.65,0,0,0,7.8.47,1.14,1.14,0,0,0,.31.5,1.18,1.18,0,0,0,.87.32l7.4-.39.23,4.38a1.13,1.13,0,0,0,.38.81,1.17,1.17,0,0,0,.85.3l6-.33,1.77-.1.05.89a1.2,1.2,0,0,0,.39.81,1.16,1.16,0,0,0,.85.3l9.26-.51a1.17,1.17,0,0,0,.81-.4,1.16,1.16,0,0,0,.3-.85l-.29-4.71a15.78,15.78,0,0,0,6.4,1.26,22,22,0,0,0,2.77-.19,21.1,21.1,0,0,0,4.9-1.28c.05.34.09.69.14,1a1.17,1.17,0,0,0,1.29,1l11-1.28a1.13,1.13,0,0,0,.81-.46,1.18,1.18,0,0,0,.21-.91c-.95-5.38-.43-17.23,1.59-18,.2-.08,1.19.3,2.88,3a1.2,1.2,0,0,0,.74.53,1.18,1.18,0,0,0,.9-.16l2.19-1.43,2.3,4.08-3.71,15.55a1.17,1.17,0,0,0,.73,1.38l8.35,3.11a1.18,1.18,0,0,0,1.5-.65L212.93,107A1.15,1.15,0,0,0,212.92,106.09Z"/><polygon id="polygon16" class="cls-3" points="0 42.69 12.03 62.99 16.83 58.41 3.74 38.89 0 42.69"/><polygon id="polygon18" class="cls-4" points="178.56 26.73 178.09 29.41 183.84 27.55 183.13 24.27 178.56 26.73"/><polygon id="polygon25" class="cls-5" points="145.04 8.46 126.54 29.68 131.92 28.13 149.54 6.13 145.04 8.46"/><polygon id="polygon27" class="cls-6" points="244.06 37.48 248.6 35.05 247.3 46.43 244.06 37.48"/><polygon id="polygon29" class="cls-6" points="215.82 44.77 219.86 45.6 225.01 43.09 220.54 41.43 215.82 44.77"/><polygon id="polygon36" class="cls-7" points="76.6 32.69 77.24 45.87 82.88 43.6 81.19 30.23 76.6 32.69"/><polygon id="polygon43" class="cls-8" points="220.19 28.76 215.65 31.2 215.82 44.77 220.39 42.43 221.82 35.86 220.19 28.76"/><polygon id="polygon45" class="cls-9" points="219.57 45.63 214.57 90 222.56 88.43 224.12 43.24 219.57 45.63"/><polygon id="polygon47" class="cls-10" points="229.34 92.13 229.49 98.15 244.81 103.03 249.38 100.62 234.34 88.96 219.1 87.63 214.57 90 229.34 92.13"/><polygon id="polygon49" class="cls-10" points="172.48 81.55 176.25 79.52 178.65 83.96 182.2 82 182.91 87.85 205.19 91.81 209.65 89.36 178.92 70.63 157.12 74.37 152.87 78.41 172.48 81.55"/><polygon id="polygon56" class="cls-11" points="165.39 26.96 160.93 29.41 152.87 78.41 157.38 76.06 165.12 48.55 165.39 26.96"/><polygon id="polygon58" class="cls-6" points="129.79 33.52 126.23 35.42 126.53 36.6 134.99 31.23 131.3 27.26 126.54 29.68 129.79 33.52"/><polygon id="polygon60" class="cls-10" points="139.51 91.4 103.17 73.4 107.73 69.95 144.03 88.96 139.51 91.4"/><polygon id="polygon62" class="cls-6" points="106.58 24.41 101.07 34.85 106.89 33.09 111.09 21.96 106.58 24.41"/><path id="path69" class="cls-12" d="M56.63,67.55,52,70.74a73.83,73.83,0,0,0,2.25,8.79,19.3,19.3,0,0,0,4.32,6.52,16.73,16.73,0,0,0,7,4.08A19.64,19.64,0,0,0,81.5,87.47a29.69,29.69,0,0,0,4.16-3.18C80.76,87.26,56.63,67.55,56.63,67.55Z"/><polygon id="polygon71" class="cls-6" points="81.5 44.8 85.74 91.58 103.06 89.01 107.69 86.58 86.2 41.99 81.77 43.48 77.24 45.87 81.5 44.8"/><polygon id="polygon78" class="cls-13" points="16.55 61.05 35.91 104.94 54.3 99.01 58.78 95.99 20.62 56.06 15.84 58.92 12.03 62.99 16.55 61.05"/><path id="path80" class="cls-6" d="M208.38,81.76l.26,2.15a21.34,21.34,0,0,0,4.67-.89A27.43,27.43,0,0,0,220,79.67c-.51.18-9,2.37-11.57,2.09"/><path id="path82" class="cls-6" d="M143.32,70.55,144,74a26.9,26.9,0,0,0,10.06-3.82c2-1.17,4.14-3,4.82-3.42C158.41,67.09,143.32,70.55,143.32,70.55Z"/><g id="g84"><path id="path86" class="cls-14" d="M40.94,100.78,39.5,97.59l-18.35-41-.38-.84-.83.39-.56.25L16.11,58l-1.83-3.11L6.89,42.45,5,39.19l3.19-2a71,71,0,0,1,10.15-5.3,56.66,56.66,0,0,1,21.83-4.81,37.87,37.87,0,0,1,6.51.54,20.86,20.86,0,0,1,9.23,3.26,20.3,20.3,0,0,1,8.72,9.58,18,18,0,0,1,.79,11.15l-.53,2.35,2-1.41a22.28,22.28,0,0,1,4.25-2.43,20.42,20.42,0,0,1,8-1.66,17.41,17.41,0,0,1,7.17,1.5l1.42.64L87.49,49l-.62-6.72-.1-1.06-1,.27-3.1.81L82.08,30.9l22.77-7.28-.18,8.88,1.72.44,5-9.53,14.9,13.21.62.56.6-.57A23.36,23.36,0,0,1,134.67,32l1.14-.46-.78-1-2.68-3.27,17.1-19.71,9,13.36-13.72,7.37-3,1.64,3.46.07a21.09,21.09,0,0,1,16.2,7.74l1.43,1.76.92,1.14-1.53,1.62-1,1.08-3.42,3.65-.64.68.69.62,3.21,2.9,1.24,1.11.27-1.65,1.23-7.62.31-2h0l.33-2,1.84-11.26h17.19l.13-.76.32-1.93H198.6l3.58,22.62.24,1.47,1.2-.87a20.64,20.64,0,0,1,4.76-2.58,19.72,19.72,0,0,1,7-1.3,17.13,17.13,0,0,1,7.84,1.86,1.06,1.06,0,0,0,.27.16l1.11.44.13-1.19.27-2.47.08-.8-.79-.18-3-.67-.14-11.79,22.85,5,1.72,8.48,1.77,0,1.77-7.3,19.07,4.63-19.48,58.7-13.94-4.37-.1-5.41v-.77l-.77-.11-13.91-2,.79-7.06.18-1.69-1.5.77a18.64,18.64,0,0,1-2.06.91,19.5,19.5,0,0,1-6.92,1.3,19,19,0,0,1-2-.11l-1.19-.14.19,1.18,1,6.22-20.29-3.58-1.07-9.22-.34-3-1.37,2.64-2.33,4.51-4.3-7.94-1.3-2.39-.4,2.68-.94,6.15-17.78-2.8,1.37-8.44.32-1.93-1.68,1a36,36,0,0,1-10.22,4,27.35,27.35,0,0,1-4.3.69l-.84.07V87.49l-35-17.31-1.32-.65V71l0,14.8L91.12,88.11,90.46,81l-.18-1.9-1.36,1.34A22.44,22.44,0,0,1,82,85.1a20.13,20.13,0,0,1-7.92,1.66,17.15,17.15,0,0,1-7.46-1.65A16.13,16.13,0,0,1,58,74.75a17.28,17.28,0,0,1-.5-6.86l.31-2.52L56,67.12a45,45,0,0,1-4.15,3.49l-.5.36.16.6,5.27,20.25.94,3.59-3.54,1.12-9.93,3.18-3.32,1.07ZM45.4,46.43a8.51,8.51,0,0,0-1.58.14l-.67.13-1,.19.3,1,.19.64,2.84,9.29.29.89L46.19,60l1.05-.93.7-.62c2.75-2.48,3.72-5,3.13-8.16a4.56,4.56,0,0,0-2.68-3.24,6.79,6.79,0,0,0-3-.64Zm76.13.3-1.77,1.73L115.08,53l-1,1,1.33.51,5,1.94,1.54.59-.32-1.62a21.38,21.38,0,0,1-.32-6.21l.23-2.47ZM142,41.56A7,7,0,0,0,135.82,52l.38.72.62,1.14.86-1,.55-.62,6.86-7.83.54-.62.87-1-1.24-.46-.77-.28a6.87,6.87,0,0,0-2.54-.49Z"/></g><path id="path88" class="cls-15" d="M152.44,53.16a.91.91,0,0,0-.18.21l.21-.18Z"/><polygon id="polygon90" class="cls-15" points="158.35 47.69 161.78 44.03 160.6 45.27 160.64 45.12 159.6 46.21 156.18 49.85 159.39 52.74 159.97 49.15 161.56 50.58 158.35 47.69"/><polygon id="polygon92" class="cls-15" points="158.35 47.69 161.56 50.58 162.79 42.95 161.78 44.03 158.35 47.69"/><path id="path94" class="cls-15" d="M115.71,53.65l.06,0Z"/><path id="path96" class="cls-16" d="M134.68,56.82c.27.28,0,.08.33.29l2.09-1.47a8.87,8.87,0,0,1-.9-.72c-3-2.77-2.25-9-.28-12.41-5.19,4.18-4.92,10.63-1.24,14.31"/><path id="path98" class="cls-16" d="M160,60.31a30,30,0,0,1-12.62,6,25.4,25.4,0,0,1-3.35.55c-8.27.81-15.21-3-17.84-9.15a12.78,12.78,0,0,1-.77-2.31,16.29,16.29,0,0,1,2.38-13.45c.26-.36.53-.69.81-1-.14.12-.27.21-.38.32a16.91,16.91,0,0,0-2.6,2.89,16.26,16.26,0,0,0-2.37,13.45,12.66,12.66,0,0,0,.76,2.3c2.63,6.17,9.57,10,17.83,9.16a23.79,23.79,0,0,0,3.36-.56,29.86,29.86,0,0,0,12.61-6,26.16,26.16,0,0,0,2.46-2.28l-.08-.07c-.08.07-.13.13-.2.18"/><polygon id="polygon100" class="cls-16" points="101.68 44.63 110.92 31.64 110.54 31.3 101.63 43.82 101.68 44.63"/><polygon id="polygon102" class="cls-16" points="162.79 42.95 161.56 50.58 159.97 49.15 159.39 52.74 156.18 49.85 159.6 46.21 160.64 45.12 160.6 45.27 161.78 44.03 162.79 42.95"/><polygon id="polygon104" class="cls-16" points="151.37 21.56 154.61 20.17 148.69 12.58 146.76 15.29 151.37 21.56"/><path id="path106" class="cls-16" d="M61.78,40.37c-14.93-18.2-41.84-8.42-51.52.09l.38.65a63,63,0,0,1,7-3.46c9.6-4.1,18.76-5.31,26.11-4a17.46,17.46,0,0,1,7.74,2.67,16.5,16.5,0,0,1,7.29,7.87c2.6,6,.31,14-5.83,20.63C60.69,57.74,66,51,61.78,40.37Z"/><path id="path108" class="cls-16" d="M92.26,61.56a8.28,8.28,0,0,0-.25-1,12.44,12.44,0,0,0-5-7c-3.83-2.61-9.18-3.14-14.52-.89A20.09,20.09,0,0,0,65.3,58a19.74,19.74,0,0,1,5-3.13c5.32-2.26,10.67-1.72,14.52.88a12.55,12.55,0,0,1,5,7c.09.32.17.66.24,1a15.15,15.15,0,0,1,.29,3.5,18.31,18.31,0,0,1-3.55,10c-.34.48-.71.92-1.09,1.36A20.1,20.1,0,0,0,89,75.06a18.28,18.28,0,0,0,3.56-10,14.28,14.28,0,0,0-.29-3.51"/><path id="path110" class="cls-16" d="M77.55,57.12S79.72,55,79.69,55a4.43,4.43,0,0,0-4,2.68,5.63,5.63,0,0,1,1.85-.51"/><path id="path112" class="cls-16" d="M82.71,60.28a3.93,3.93,0,0,1,.16,1.14A3.87,3.87,0,0,1,82.52,63c.43-.23,3.6-1.76,2.37-5,.07.1-2.26,2.24-2.18,2.25"/><path id="path114" class="cls-16" d="M70.25,62.09c0-1.34,2.3-4.59,3-5.67-3.62,2.3-5.18,5.4-5.18,7.85,0,4.19,3.68,7.56,8.09,7.56a10.27,10.27,0,0,0,8.38-5.14c-1.3.86-4.62,2.92-6.37,2.92a7.68,7.68,0,0,1-7.93-7.52"/><polygon id="polygon116" class="cls-16" points="101.23 65.92 101.28 82.88 103.97 83.03 103.44 63.7 101.23 65.92"/><polygon id="polygon118" class="cls-16" points="85.78 33.64 85.84 35.15 98.59 31.35 99.53 47.59 101.66 44.61 101.21 28.31 85.78 33.64"/><polygon id="polygon120" class="cls-16" points="124.33 39.46 112.35 28.46 110.92 31.64 121.46 41.55 124.33 39.46"/><path id="path122" class="cls-16" d="M122.51,59.94l-14.06-4.65-2,2.17,14,5.61a19.62,19.62,0,0,0,7,7.43,23,23,0,0,0,9.84,3.21v6.92l2.17,1.08.69-10.39L122.51,59.94Z"/><path id="path124" class="cls-16" d="M145.1,58a13,13,0,0,0,7.16-4.62c-1.29,1.06-7.74,2.46-8.83,2.83l-2.12,2.26A13.58,13.58,0,0,0,145.1,58"/><path id="path126" class="cls-16" d="M138.81,34.07c-6.37.84-9.69,6.18-10.23,6.84a20.6,20.6,0,0,1,8.62-4.25c7.88-1.91,14.83.49,19.12,5.8L159,40.21c-4.25-5.21-12.29-8-20.17-6.14"/><path id="path128" class="cls-16" d="M160.17,60.13A35,35,0,0,0,163,58.07l-8.53-7.62a21,21,0,0,1-2,2.74l7.71,6.94Z"/><path id="path130" class="cls-16" d="M203.94,80.55c-8.95-7.36-8.41-23.12-4-28.13L196,27.71l-8.63,1.11L187,31h6.52L197,53.42c-4.4,5-6.52,11.74-5,17.9a16.31,16.31,0,0,0,8.26,10.83,13.12,13.12,0,0,0,1.31.63l.06.33,2.56.4s.27-2.75-.15-3Z"/><polygon id="polygon132" class="cls-16" points="169.55 31.34 169.18 33.52 179.01 33.52 181.91 49.4 184.09 47.2 181.8 30.43 169.55 31.34"/><polygon id="polygon134" class="cls-16" points="186.38 62.17 183.21 70.38 184 72.51 188.54 60.02 186.38 62.17"/><polygon id="polygon136" class="cls-16" points="176.96 57.01 174.77 59.19 172.43 74 174.67 74.86 176.96 57.01"/><path id="path138" class="cls-16" d="M221.12,52.28a11.42,11.42,0,0,1,3.21,3.46,11.91,11.91,0,0,1,1.46,3.55,16.12,16.12,0,0,1-3,13.14c-.28.39-.6.77-.9,1.14,1.15-1,15.12-11.29,1.47-24.82-15-5-20.69,4.84-21.22,5.46A18.78,18.78,0,0,1,207.5,51c5.08-1.92,10.08-1.26,13.62,1.29"/><path id="path140" class="cls-16" d="M213.56,53.25c0,.1,2.15-2.2,2.19-2.2-2.67.11-3.95,1.4-3.82,2a3.6,3.6,0,0,0-.39.72,6.29,6.29,0,0,1,2-.51"/><path id="path142" class="cls-16" d="M218.58,56.61a4.2,4.2,0,0,1,.13,1.14,4.06,4.06,0,0,1-.35,1.43c.4-.19,3.64-1.19,2.4-4.75,0,.1-2.22,2.18-2.18,2.18"/><path id="path144" class="cls-16" d="M211.49,67.92c3,.13,6.36-1.73,8.75-5-6.14,1.26-12.61-9-12-10-2.32,1.69-4.38,4.94-4.47,7.21a7.69,7.69,0,0,0,7.68,7.78"/><polygon id="polygon146" class="cls-16" points="245.18 94.59 246.62 95.56 264.21 42.77 251.04 39.73 250.88 42.82 261.5 45.18 245.18 94.59"/><polygon id="polygon148" class="cls-16" points="224.29 34.07 224.41 37.02 238.4 39.83 243.79 65.39 245.97 63.19 240.84 37.37 224.29 34.07"/><polygon id="polygon150" class="cls-16" points="235.06 63.19 231.21 84.98 233.43 85.7 237.25 61.05 235.06 63.19"/><polygon id="polygon152" class="cls-16" points="53.45 92.98 46.9 69.25 44.5 70.92 50.57 93.66 53.45 92.98"/><path id="path154" class="cls-16" d="M51.75,57.29a50.06,50.06,0,0,1-6.77,6l-1.16-3.72-2.53-8.15-1.61-5.52-1.58,2,1.61,5.52,2.53,8.15,1.16,3.73c2.61-1.68,6.41-4.84,8.35-8"/><path id="path156" class="cls-15" d="M144.5,43.26c-2.07-.8-5-.56-6.57,1.17a12.23,12.23,0,0,0-1.31,1.88,7,7,0,0,1,6-.83l1.84-2.22Z"/><path id="path158" class="cls-15" d="M49.86,50.62a3.93,3.93,0,0,0-2-2.45,7.74,7.74,0,0,0-4.18-.35c.24.82.51,1.79.63,2.18a8.9,8.9,0,0,1,1.88.45A3.19,3.19,0,0,1,48,52.62,6.51,6.51,0,0,1,47.55,57c1.87-1.84,2.78-3.84,2.31-6.41"/><g id="g160"><g id="g162"><path id="path164" class="cls-17" d="M53.14,50.59c-.9-4.82-7.21-7.48-13.46-4.07L41.29,52l2.53,8.16L45,63.91C49.67,60.9,54.39,57.27,53.14,50.59ZM46.92,58c-.68-2.23-2.18-7-2.18-7s-.29-1-.65-2.24a6,6,0,0,1,3.65.36,3.16,3.16,0,0,1,1.84,2.17C50.1,54,49.16,56,46.92,58Z"/></g></g><g id="g166"><g id="g168"><path id="path170" class="cls-18" d="M147.77,42.94A8.57,8.57,0,1,0,136.2,55.59a7.67,7.67,0,0,0,.9.72l11.28-12.77C148.18,43.33,148,43.12,147.77,42.94Zm-10.65,9A5.53,5.53,0,0,1,144,44.1Z"/></g></g><polygon id="polygon172" class="cls-19" points="162.84 41.53 156.59 47.55 162.53 52.88 162.84 41.53"/><path id="path174" class="cls-20" d="M220.75,54.43a4.36,4.36,0,0,1,.13,1.15,4.88,4.88,0,1,1-5.15-4.51,8.7,8.7,0,0,0-1.46-.18c-4.48-.19-8.13,3-8.29,6.92a8,8,0,0,0,15.92.65,6.8,6.8,0,0,0-1.15-4"/><path id="path183" class="cls-21" d="M85.05,59.24a4.88,4.88,0,0,1-9.69,0A4.54,4.54,0,0,1,79.72,55a8.71,8.71,0,0,0-1.46-.13c-4.48,0-8,3.32-8,7.27a8,8,0,0,0,15.92,0,6.7,6.7,0,0,0-1.31-4,3.37,3.37,0,0,1,.18,1.12"/><g id="g185"><g id="g187"><path id="path196" class="cls-22" d="M248.57,35l-2,8.19-1.83-9.07-24.56-5.4.17,13.65,3.7.83-.26,2.47a.52.52,0,0,1-.11-.07A19.08,19.08,0,0,0,208.06,45a21.65,21.65,0,0,0-5,2.69l-3.71-23.39H183.05L182.6,27H165.41l-2,12L162,37.24a22,22,0,0,0-16.89-8.07l14.59-7.85L149.54,6.13,131.15,27.32l3.18,3.87a24.4,24.4,0,0,0-7.47,4.75L111.09,22l-5.51,10.57.21-10.15L81.14,30.24l.63,13.24L86,42.4l.62,6.71a20,20,0,0,0-15.9.16,23.42,23.42,0,0,0-4.42,2.52,18.7,18.7,0,0,0-.85-11.71,21.12,21.12,0,0,0-9.05-10,21.7,21.7,0,0,0-9.57-3.4C38.27,25.21,28,26.74,18,31A71.51,71.51,0,0,0,7.67,36.4L3.73,38.89l2.38,4L13.49,55.4s2.26,3.82,2.28,3.82l4-2,.56-.26L38.67,98l1.77,3.94,4.1-1.32,9.93-3.18L58.82,96l-1.15-4.43L52.4,71.34a43.59,43.59,0,0,0,4.24-3.56A18.08,18.08,0,0,0,57.17,75a17,17,0,0,0,9,10.93,19.62,19.62,0,0,0,16.13,0,23.55,23.55,0,0,0,7.21-4.86l.75,8.07,17.39-2.56,0-15.6L144,89V71.56a28.28,28.28,0,0,0,4.44-.72,36.91,36.91,0,0,0,10.47-4.11l-1.53,9.34L177,79.15l1.08-7.05,5.12,9.45,3.12-6,1.15,9.89,22.21,3.92-1.18-7.47a20.13,20.13,0,0,0,9.34-1.24,19.74,19.74,0,0,0,2.15-.95l-.88,7.95,14.78,2.09.11,6.06,15.42,4.84,20.07-60.5L248.57,35Zm-86.79,9,1-1.08-1.24,7.63-3.21-2.9Zm-13-31.15,5.38,7.31-15.39,7.63-1.06-1.62ZM46.87,69.25,53,92.81,43.07,96,22.68,50.45c-1.11.58-3.15,1.56-5,2.48L10.26,40.46a63.62,63.62,0,0,1,9.58-5c9.62-4.09,18.79-5.31,26.12-4a17.57,17.57,0,0,1,7.75,2.66A16.52,16.52,0,0,1,61,42C64.54,50.2,58.61,62,46.87,69.25Zm45.68-4.19a18.2,18.2,0,0,1-3.56,10,19.86,19.86,0,0,1-8.29,6.69c-8.62,3.66-17.23,0-19.54-8.18-2.23-7.91,3-17.33,11.31-20.93,5.34-2.25,10.69-1.72,14.52.89a12.42,12.42,0,0,1,5,7,8.44,8.44,0,0,1,.25,1A14.24,14.24,0,0,1,92.55,65.06Zm46.9,16.65-36-18,.06,18.9-9.33,1.27-.65-7.79A20.89,20.89,0,0,0,95.91,60a16.82,16.82,0,0,0-4.42-7.52L90.16,36.57,86,37.65l-.19-4,15-4.46.92,15.45,11-15.51L123.5,39.4,108.41,55.29l14.18,5.61a19.42,19.42,0,0,0,7,7.42,22.91,22.91,0,0,0,9.84,3.23V81.71ZM120.73,55.59l-5-1.94,4.67-4.54A22.29,22.29,0,0,0,120.73,55.59ZM160,60.31a30,30,0,0,1-12.62,6,25.4,25.4,0,0,1-3.35.55c-8.27.81-15.21-3-17.84-9.15a12.78,12.78,0,0,1-.77-2.31,16.29,16.29,0,0,1,2.38-13.45,16.61,16.61,0,0,1,2.6-2.9,20.78,20.78,0,0,1,9-4.56c7.88-1.9,14.82.5,19.07,5.72l-15,16a10.52,10.52,0,0,0,3.83-.36A13.21,13.21,0,0,0,154.6,51l6,5.39L162.42,58C161.63,58.84,160.8,59.61,160,60.31Zm31.85,21.33L188.55,60l-4.62,11.94L177,57h-.08L174.21,74.3l-11.53-2,1.62-9.64c.44-.41.86-.82,1.29-1.25l3.73-3.85-3.63-3.25,3.86-23h11.63l2.91,15.9,3.26-18.42h8.32l3.45,22.44c-4.39,5-6.52,11.73-5.06,17.88A16.42,16.42,0,0,0,202.33,80c.43.21.86.42,1.32.6l.44,2.91-12.27-1.87Zm28.73-7a18,18,0,0,1-4.18,2.23,15.47,15.47,0,0,1-8.55.84,12.59,12.59,0,0,1-5-2.11,12.35,12.35,0,0,1-4.77-7.25A15.45,15.45,0,0,1,200,57.1a20.17,20.17,0,0,1,3.8-4.69,19,19,0,0,1,5.84-3.6c5.08-1.89,10.09-1.24,13.62,1.3a12,12,0,0,1,3.23,3.45A12.37,12.37,0,0,1,228,57.11a16.09,16.09,0,0,1-3,13.14A19.4,19.4,0,0,1,220.55,74.59ZM246.5,95,238,92.44,237.23,61,233,85.26l-9.3-1.48.66-7c6.08-5.13,9.29-13.23,7.53-20.56A16.12,16.12,0,0,0,227,48l.79-8.23-3.52-.94.24-4.39,16,3.22L246,63.21l5.53-22.9L263.67,43,246.5,95Z"/></g></g><g id="flowRoot3115"><path id="path3084" class="cls-23" d="M253.5,98V95.59h-.88v-.32h2.13v.32h-.89V98Z"/><path id="path3086" class="cls-23" d="M255.11,98V95.27h.53l.64,1.91c.06.17.1.31.13.39l.14-.43.64-1.87h.48V98h-.34V95.71L256.55,98h-.32l-.78-2.29V98Z"/></g><path class="cls-24" d="M115.42,13.62a4.12,4.12,0,0,0-.22.7c0,.26-.09.55-.12.88s0,.71,0,1.15c0,.7,0,1.55.1,2.54l1-.12c-.1-1.37-.16-2.51-.16-3.4,0-.44,0-.83,0-1.15a6.6,6.6,0,0,1,.13-.88,3.21,3.21,0,0,1,.21-.7c0-.1.08-.17.12-.26h0C116.12,12.37,115.78,12.79,115.42,13.62Z"/><path class="cls-24" d="M122.55,12.28A4.11,4.11,0,0,0,122,11a7.65,7.65,0,0,0-1-1.2,6.2,6.2,0,0,0-1-.81,3.48,3.48,0,0,0-1.8-.44,8.79,8.79,0,0,0-2.69.51l-.58-6.86-.7.09.35,7.75a8.9,8.9,0,0,1,2.69-.51A3.49,3.49,0,0,1,119,10a5.47,5.47,0,0,1,1,.82A6.76,6.76,0,0,1,121,12a4.11,4.11,0,0,1,.59,1.27,14.12,14.12,0,0,1,.46,3.24A11.81,11.81,0,0,1,122,18c0,.32-.09.71-.15,1.14l.78-.05q.19-1.26.3-2.07a13.92,13.92,0,0,0,.09-1.54A13.58,13.58,0,0,0,122.55,12.28Z"/><path class="cls-25" d="M122.09,16.5a14.12,14.12,0,0,0-.46-3.24A4.11,4.11,0,0,0,121,12a6.76,6.76,0,0,0-1-1.19,5.47,5.47,0,0,0-1-.82,3.49,3.49,0,0,0-1.81-.44,8.9,8.9,0,0,0-2.69.51l-.35-7.75-2.87.35L111.5,14a13.08,13.08,0,0,1,.17,1.35c0,.4,0,.84,0,1.32s0,.95,0,1.4,0,.85.08,1.19l3.3-.38c-.06-1-.1-1.84-.1-2.54,0-.44,0-.83,0-1.15s.07-.62.12-.88a4.12,4.12,0,0,1,.22-.7c.36-.83.7-1.25,1-1.25h0c.32-.65.61-1,.88-1s.47.3.71.89a15.89,15.89,0,0,1,1,5.81c0,.55,0,1,0,1.26l2.86-.17c.06-.43.11-.82.15-1.14A11.81,11.81,0,0,0,122.09,16.5Z"/><path class="cls-26" d="M119,19.8a.42.42,0,0,1-.32-.13.48.48,0,0,1-.14-.34c0-.29,0-.7,0-1.24a15.61,15.61,0,0,0-.91-5.64,2.11,2.11,0,0,0-.31-.58,2.87,2.87,0,0,0-.56,1,3.13,3.13,0,0,0-.19.61,6.27,6.27,0,0,0-.11.82c0,.32,0,.69,0,1.12,0,.88,0,2,.16,3.37a.45.45,0,0,1-.41.48l-4.27.5a.45.45,0,0,1-.51-.39,10.54,10.54,0,0,1-.09-1.23c0-.45,0-.93,0-1.41s0-.91-.06-1.3a12.51,12.51,0,0,0-.16-1.31l-.24-11.42a.46.46,0,0,1,.4-.46l3.58-.44a.43.43,0,0,1,.34.1.47.47,0,0,1,.16.32l.53,6.29c1.86-.53,3.24-.49,4.32.14a6.23,6.23,0,0,1,1.12.87,7.79,7.79,0,0,1,1.08,1.28,4.47,4.47,0,0,1,.65,1.42,13.89,13.89,0,0,1,.48,3.34,14.75,14.75,0,0,1-.1,1.59c-.07.55-.17,1.24-.3,2.09a.45.45,0,0,1-.42.38L119,19.8Zm-1.64-8.87c.58,0,.91.63,1.14,1.18a16.61,16.61,0,0,1,1,6v.77l2.78-.16c.1-.68.18-1.24.23-1.69a13.15,13.15,0,0,0,.1-1.49,13.75,13.75,0,0,0-.45-3.13,3.65,3.65,0,0,0-.53-1.12,6,6,0,0,0-1-1.12,5.5,5.5,0,0,0-.95-.76c-.94-.54-2.28-.5-4.12.11a.47.47,0,0,1-.4-.05.47.47,0,0,1-.2-.34l-.53-6.39-2.7.33L112,14a13.33,13.33,0,0,1,.16,1.33c0,.41,0,.85.06,1.34s0,.95,0,1.4c0,.25,0,.48,0,.69l3.38-.39c-.08-1.19-.12-2.2-.12-3,0-.46,0-.85,0-1.19a7.9,7.9,0,0,1,.13-.94,4,4,0,0,1,.24-.78C116.23,11.75,116.68,10.93,117.34,10.93Z"/><path class="cls-24" d="M113.39,4.23,113.18.45l-1.35.09L112,4.25l-4.42.36.49,11.67.82,0h.54L109,4.59Z"/><rect class="cls-24" x="101.22" y="2.74" height="4.08" transform="translate(94.04 105.86) rotate(-88.64)"/><path class="cls-25" d="M112,4.25,111.83.54l-12.56.84-.08,3.43,4.07-.06h0l1.35,0,.58,11.21a3.66,3.66,0,0,0,1,.21,12.26,12.26,0,0,0,1.45.11l.5,0-.49-11.67Z"/><path class="cls-26" d="M109.46,16.75h-.53l-1.34,0c-.54,0-1-.06-1.49-.11a4.1,4.1,0,0,1-1.09-.25.46.46,0,0,1-.28-.4l-.55-10.77-5,.08a.48.48,0,0,1-.33-.14.51.51,0,0,1-.13-.33l.08-3.43a.47.47,0,0,1,.43-.45L113.15,0a.49.49,0,0,1,.33.11.48.48,0,0,1,.15.32l.22,3.78a.46.46,0,0,1-.42.48l-4,.32.48,11.27a.42.42,0,0,1-.13.33A.44.44,0,0,1,109.46,16.75Zm-3.83-1.15a3.74,3.74,0,0,0,.58.1c.42.06.9.09,1.41.11l1.31,0H109l-.48-11.23a.46.46,0,0,1,.42-.47l4-.32L112.75.94l-13,.87-.06,2.54,5-.07a.44.44,0,0,1,.46.43Z"/><path class="cls-27" d="M126,11.22l-.3.17c-.16.15-.32.35-.47.52a2.33,2.33,0,0,0-.39,1.3,2.72,2.72,0,0,0,.06.58,4.36,4.36,0,0,0,.33.62l2.42-3A15.67,15.67,0,0,0,126,11.22Z"/><path class="cls-24" d="M125.65,11.39l.3-.17A.52.52,0,0,0,125.65,11.39Z"/><path class="cls-24" d="M127.22,15.45l.07,0-.18,0S127.12,15.5,127.22,15.45Z"/><path class="cls-24" d="M125.28,9.49a6.41,6.41,0,0,1,1.64-.21,6.2,6.2,0,0,1,2.11.36,5.06,5.06,0,0,1,1.74,1L127.12,15c.18,0,.16.11.1.22l4.6-5.49a5.27,5.27,0,0,0-1.75-1,6.17,6.17,0,0,0-2.1-.35,6.43,6.43,0,0,0-1.65.2,6.54,6.54,0,0,0-1.55.6,6.92,6.92,0,0,0-1.38,1,2,2,0,0,0-.22.26,4,4,0,0,1,.56-.35A6.38,6.38,0,0,1,125.28,9.49Z"/><path class="cls-24" d="M128.25,15.34a3.61,3.61,0,0,0,.25-.3,2.2,2.2,0,0,1-.26.15,2.78,2.78,0,0,1-.73.22C127.77,15.43,128,15.59,128.25,15.34Z"/><path class="cls-24" d="M127.6,11.41l-2.42,3a.94.94,0,0,1,.06.15l2.85-3A2.3,2.3,0,0,0,127.6,11.41Z"/><path class="cls-24" d="M125.18,11.91a.86.86,0,0,1-.28.22c-.29.13,0,.23-.11.4-.36.47,0,.52,0,1.08,0,.2,0,0,0,.18a2.72,2.72,0,0,1-.06-.58A2.33,2.33,0,0,1,125.18,11.91Z"/><path class="cls-24" d="M130.14,13.28a5.59,5.59,0,0,1-.84,1.15l1.9,2.29a2.22,2.22,0,0,1-.27.5l.12-.06a2.84,2.84,0,0,0,1.19-1.34Z"/><path class="cls-25" d="M129.3,14.43l-.2-.24a5.88,5.88,0,0,1-.6.85,3.49,3.49,0,0,0,.79-.61Z"/><path class="cls-25" d="M127.29,15.43l.22,0A.53.53,0,0,0,127.29,15.43Z"/><path class="cls-25" d="M127.11,15.45a2.28,2.28,0,0,1,.11-.21l-.19.22Z"/><path class="cls-25" d="M125.06,14.56l.12-.15a4.36,4.36,0,0,1-.33-.62C124.89,14,125,14.24,125.06,14.56Z"/><path class="cls-25" d="M125.65,11.39a1,1,0,0,0-.32.29,1.14,1.14,0,0,0-.15.23C125.33,11.74,125.49,11.54,125.65,11.39Z"/><path class="cls-25" d="M127.73,11.25a1.93,1.93,0,0,0-.87-.22,2.39,2.39,0,0,0-.91.19,15.67,15.67,0,0,1,1.65.19Z"/><path class="cls-25" d="M129.3,14.43h0a3.49,3.49,0,0,1-.79.61,3.61,3.61,0,0,1-.25.3c-.24.25-.48.09-.74.07l-.22,0-.07,0c-.1.05-.12,0-.11,0H127l.19-.22c.06-.11.08-.22-.1-.22l3.65-4.36a5.06,5.06,0,0,0-1.74-1,6.2,6.2,0,0,0-2.11-.36,6.87,6.87,0,0,0-3.19.81,4,4,0,0,0-.56.35,5.38,5.38,0,0,0-.78,1.51,7.27,7.27,0,0,0-.48,2.58,4.16,4.16,0,0,0,.85,2.71,2.88,2.88,0,0,0,1.39.93,6.46,6.46,0,0,0,2,.3,10.16,10.16,0,0,0,2.6-.35,8.13,8.13,0,0,0,2.13-.9,2.22,2.22,0,0,0,.27-.5Zm-4.06.13a.94.94,0,0,0-.06-.15l-.12.15c-.1-.32-.17-.58-.21-.77s0,0,0-.18c0-.56-.38-.61,0-1.08.12-.17-.18-.27.11-.4a.86.86,0,0,0,.28-.22,1.14,1.14,0,0,1,.15-.23,1,1,0,0,1,.32-.29.52.52,0,0,1,.3-.17,2.39,2.39,0,0,1,.91-.19,1.93,1.93,0,0,1,.87.22l-.13.16a2.3,2.3,0,0,1,.49.13Z"/><path class="cls-26" d="M126.2,18.93a6.83,6.83,0,0,1-2.2-.33,3.36,3.36,0,0,1-1.6-1.07,4.68,4.68,0,0,1-.94-3,7.94,7.94,0,0,1,.5-2.74,5.18,5.18,0,0,1,1.12-1.94,7,7,0,0,1,3.13-1.71,7.1,7.1,0,0,1,4,.16,5.63,5.63,0,0,1,1.9,1.11.48.48,0,0,1,0,.64l-3.85,4.59a3.47,3.47,0,0,0,.64-.52,5.42,5.42,0,0,0,.79-1.06.43.43,0,0,1,.35-.23.41.41,0,0,1,.39.16l2.1,2.53a.42.42,0,0,1,.08.44,3.14,3.14,0,0,1-1.38,1.58,8.43,8.43,0,0,1-2.37,1A10.67,10.67,0,0,1,126.2,18.93ZM128,8.83a6.07,6.07,0,0,0-1.54.19,5.89,5.89,0,0,0-1.44.56,6.06,6.06,0,0,0-1.28.93,4.28,4.28,0,0,0-.9,1.6,7,7,0,0,0-.44,2.42,3.83,3.83,0,0,0,.74,2.43,2.48,2.48,0,0,0,1.18.78,8,8,0,0,0,4.39-.06,7.49,7.49,0,0,0,2.12-.91,2.65,2.65,0,0,0,.91-.88l-1.52-1.84a5.78,5.78,0,0,1-.57.7,4.24,4.24,0,0,1-1.19.86,3.36,3.36,0,0,1-1.4.3.45.45,0,0,1-.35-.74l4.49-5.36a4.78,4.78,0,0,0-1.25-.65A5.79,5.79,0,0,0,128,8.83ZM125.06,15H125a.46.46,0,0,1-.35-.32c-.1-.34-.17-.6-.22-.8a3.64,3.64,0,0,1-.07-.68A2.9,2.9,0,0,1,125,11.4a1.78,1.78,0,0,1,.8-.59,2.5,2.5,0,0,1,2.17,0,.45.45,0,0,1,.24.31.48.48,0,0,1-.09.38l-2.68,3.31A.46.46,0,0,1,125.06,15Zm1.8-3.53a1.83,1.83,0,0,0-.73.15,1.08,1.08,0,0,0-.43.3,2,2,0,0,0-.43,1.63L127,11.49Z"/><polygon class="cls-24" points="195.9 112.85 190.34 102.55 195.83 113.05 195.9 112.85"/><polygon class="cls-24" points="212.38 105.42 203.01 101.78 202.79 102.38 209.4 104.95 193.83 142.6 196.59 143.62 212.38 105.42"/><polygon class="cls-25" points="202.79 102.38 197.79 116.36 195.9 112.85 195.83 113.05 190.34 102.55 189.27 100.57 180.77 104.55 192.06 124.5 188.23 140.51 193.83 142.6 209.4 104.95 202.79 102.38"/><path class="cls-26" d="M196.59,144.8a1.25,1.25,0,0,1-.42-.08l-8.35-3.11a1.18,1.18,0,0,1-.73-1.37l3.72-15.56-11.06-19.55a1.16,1.16,0,0,1-.1-.93,1.18,1.18,0,0,1,.62-.71l8.5-4a1.16,1.16,0,0,1,1.53.5l7.28,13.48,4.32-12.11a1.17,1.17,0,0,1,.62-.67,1.2,1.2,0,0,1,.91,0l9.37,3.65a1.17,1.17,0,0,1,.66.63,1.2,1.2,0,0,1,0,.91l-15.79,38.2A1.18,1.18,0,0,1,196.59,144.8Zm-7-5,6.31,2.36,14.91-36-7.13-2.77-4.81,13.45a1.18,1.18,0,0,1-2.14.16l-8-14.82-6.34,3,10.66,18.84a1.2,1.2,0,0,1,.12.85Z"/><path class="cls-24" d="M176,137.21l3.1-.36c-.63-3.57-.83-13.37.87-17.51C175.52,116.7,175.25,131.19,176,137.21Z"/><path class="cls-24" d="M167.56,111a19.15,19.15,0,0,1,8.59-1.29l-.58-.67-8.82,1.1,0,.63,2.09-.66Z"/><path class="cls-24" d="M193.6,115.89c-1.68-6.93-9.24-8.06-15.2-6,5.66.7,11.2,3.13,12.26,7.5l-5.15,3.36c.05.09.11.16.16.25Z"/><path class="cls-25" d="M178.4,109.94c-.75-.09-1.51-.16-2.25-.19l.7.82A16.21,16.21,0,0,1,178.4,109.94Z"/><path class="cls-25" d="M178.4,109.94a16.21,16.21,0,0,0-1.55.63l-.7-.82a19.15,19.15,0,0,0-8.59,1.29l1.31-.89-2.09.66c.45,8.73-.12,18.42,1.25,27.32l7.92-.92c-.7-6-.43-20.51,4-17.87,1-2.52,2.8-2.93,5.59,1.46l5.15-3.36C189.6,113.07,184.06,110.64,178.4,109.94Z"/><path class="cls-26" d="M168,139.3a1.17,1.17,0,0,1-1.16-1,130.75,130.75,0,0,1-1-18.17c0-3.45-.07-6.71-.25-9.89a1.17,1.17,0,0,1,1-1.23l8.82-1.1a1.16,1.16,0,0,1,1,.4l.71.82c4.14-1.7,8.87-1.78,12.28-.15a9.58,9.58,0,0,1,5.29,6.62,1.2,1.2,0,0,1-.5,1.26L186.32,122a1.19,1.19,0,0,1-.9.16,1.14,1.14,0,0,1-.74-.52c-1.7-2.73-2.69-3.12-2.89-3-2,.77-2.54,12.62-1.58,18a1.18,1.18,0,0,1-.22.91,1.17,1.17,0,0,1-.8.47l-11,1.28ZM168,111.21c.14,2.89.17,5.82.2,8.91a138,138,0,0,0,.85,16.71l8.7-1c-.52-4.78-.91-17.8,3.22-19.38,2.09-.8,4,1.42,5.07,3l6.21-4a7.06,7.06,0,0,0-3.79-4.27c-3-1.45-7.37-1.24-11.08.52a1.2,1.2,0,0,1-1.4-.3l-.86-1Z"/><path class="cls-24" d="M102.77,99.65a20.59,20.59,0,0,0-6.29.11c6.74,0,13.72,3,16.41,8.68l2.33-1.18C113.19,103.28,108.53,100.4,102.77,99.65Z"/><path class="cls-24" d="M99.05,124.14l0-.09a5.18,5.18,0,0,1-3.82-3c-1.22-2.65-.57-6.43,1.27-9C91.06,114.29,89.79,126.59,99.05,124.14Z"/><polygon class="cls-24" points="110.17 144.47 112.28 144.64 115.01 121.59 103.95 117.42 103.16 118.64 112.8 122.28 110.17 144.47"/><path class="cls-14" d="M96.48,99.76a13.39,13.39,0,0,0-8.65,4.95c-4.73,7.39-4.36,18.46.9,25.15,3.82,4.87,9.45,6.35,15.84,4.16a1.17,1.17,0,0,1,1.5,1.44c-.38,1.28-1.86,5.88-2.7,8.46l6.8.55,2.63-22.19-9.64-3.64-.77,1.19,1.2,2.3a1.21,1.21,0,0,1,0,1,1.17,1.17,0,0,1-.78.66,8.53,8.53,0,0,1-3.83.24l0,.09c-9.26,2.45-8-9.85-2.59-12.12a7.54,7.54,0,0,1,1.92-1.94c1.26-.87,4.54-2.38,8.63,1.35l5.88-3C110.2,102.81,103.22,99.75,96.48,99.76Z"/><path class="cls-26" d="M99.7,112l.12-.06a5.18,5.18,0,0,0-1.54-.28c-3,2.91-3.72,9.24,0,10.91l-.69-1.35.25-.39a3.56,3.56,0,0,1-.48-.75C96.21,117.66,97.41,113.59,99.7,112Z"/><path class="cls-26" d="M103.47,116l12.82,4.84-3,25.08-3.29-.27-.14,1.17,3.33.27h.1a1.17,1.17,0,0,0,1.16-1l3-25.09a1.16,1.16,0,0,0-.75-1.23l-12.81-4.83a1.16,1.16,0,0,0-1.4.46l-1.58,2.45,1.13.42Z"/><path class="cls-26" d="M98.61,137.33a17.13,17.13,0,0,0,2.66-.14c.08-.24.14-.45.19-.6A19.35,19.35,0,0,1,98.61,137.33Z"/><path class="cls-26" d="M116.74,107.8l-9.95,5.06-.21-.2-1.11.56c.17.15.33.3.48.46a1.19,1.19,0,0,0,1.38.23l9.94-5.07a1.18,1.18,0,0,0,.57-1.47c-2-5.27-7.7-9.13-14.76-10.05-6.68-.87-12.81,1.05-16.39,5.08a16,16,0,0,1,4.12-1.85C99.13,95.76,113.25,98.77,116.74,107.8Z"/><polygon class="cls-26" points="103.95 117.42 115.01 121.59 112.28 144.64 110.17 144.47 110.03 145.63 113.32 145.9 116.29 120.81 103.47 115.98 102.03 118.22 103.16 118.64 103.95 117.42"/><path class="cls-26" d="M102.77,99.65c5.76.75,10.42,3.63,12.45,7.61l-2.33,1.18c.13.27.25.54.36.82l-6.67,3.4.21.2,9.95-5.06c-3.49-9-17.61-12-25.93-7.25a20.44,20.44,0,0,1,5.67-.79A20.59,20.59,0,0,1,102.77,99.65Z"/><path class="cls-26" d="M96.46,112c-1.84,2.61-2.49,6.39-1.27,9a5.18,5.18,0,0,0,3.82,3l-.77-1.47c-3.68-1.67-3-8,0-10.91A4.58,4.58,0,0,0,96.46,112Z"/><path class="cls-26" d="M101.79,145c.56-1.68,2.7-8.29,3.16-9.84C86.47,141.47,78,117.84,86.88,104a12.59,12.59,0,0,1,3.93-3.47,16,16,0,0,0-4.12,1.85c-.28.32-.55.64-.8,1-5.27,8.23-4.84,20.5,1,27.92a15.08,15.08,0,0,0,11.73,6,19.35,19.35,0,0,0,2.85-.74c0,.15-.11.36-.19.6a18.69,18.69,0,0,0,1.91-.34c-.82,2.6-2.1,6.54-2.5,7.75a1.19,1.19,0,0,0,.14,1,1.17,1.17,0,0,0,.88.52l8.19.66.14-1.17Z"/><path class="cls-26" d="M98.24,122.58a6.34,6.34,0,0,0,4.3.09l-1.5-2.9,1-1.55-1.13-.42-.86,1.34a1.14,1.14,0,0,0,0,1.17l.77,1.5a3.34,3.34,0,0,1-3-1l-.25.39Z"/><path class="cls-26" d="M98.28,111.67a5.18,5.18,0,0,1,1.54.28c2-1.3,4.12-.15,5.65,1.27l1.11-.56C103.21,109.35,100.25,109.77,98.28,111.67Z"/><path class="cls-26" d="M106.58,112.66l6.67-3.4c-.11-.28-.23-.55-.36-.82l-5.88,3c-4.09-3.73-7.37-2.22-8.63-1.35A7.54,7.54,0,0,0,96.46,112a4.58,4.58,0,0,1,1.82-.35C100.25,109.77,103.21,109.35,106.58,112.66Z"/><path class="cls-26" d="M102.84,123.81a1.17,1.17,0,0,0,.78-.66,1.21,1.21,0,0,0,0-1l-1.2-2.3.77-1.19-1.12-.42-1,1.55,1.5,2.9a6.34,6.34,0,0,1-4.3-.09l.77,1.47A8.53,8.53,0,0,0,102.84,123.81Z"/><path class="cls-26" d="M103.37,143.92c.84-2.58,2.32-7.18,2.7-8.46a1.17,1.17,0,0,0-1.5-1.44c-6.39,2.19-12,.71-15.84-4.16-5.26-6.69-5.63-17.76-.9-25.15a13.39,13.39,0,0,1,8.65-4.95,20.44,20.44,0,0,0-5.67.79A12.59,12.59,0,0,0,86.88,104C78,117.84,86.47,141.47,105,135.13c-.46,1.55-2.6,8.16-3.16,9.84l8.24.66.14-1.16Z"/><path class="cls-27" d="M120.54,120.68a3.82,3.82,0,0,0,0,.89,2.4,2.4,0,0,0,1.16,1.86V121.2A1.4,1.4,0,0,1,120.54,120.68Z"/><path class="cls-24" d="M118.17,121.8a6.35,6.35,0,0,1,2.26-5.33c-5,1.51-5.71,8.53-.06,8.91A4.78,4.78,0,0,1,118.17,121.8Z"/><path class="cls-24" d="M132.11,131.08c-.12-6.51-.26-14.43-.36-20.44l-1.75.79c.12,7,.29,16.42.41,23.21l1.76-.1Z"/><path class="cls-25" d="M125.23,113.57a1.17,1.17,0,0,1-1.13-.09,10.27,10.27,0,0,0-10.18,5.7c-2.3,4.33-2.12,9.9.43,12.94,2.11,2.52,5.53,3.1,9.88,1.7a1.13,1.13,0,0,1,.36-.06,1.26,1.26,0,0,1,.7.22,1.2,1.2,0,0,1,.48.9l4.64-.24c-.12-6.79-.29-16.19-.41-23.21Zm-.52,12.67c-.32,0-.62,0-.91,0a6.35,6.35,0,0,1-3.43-.9c-5.65-.38-5-7.4.06-8.91a7.24,7.24,0,0,1,4-1.71,1.18,1.18,0,0,1,.64,2.23,2.59,2.59,0,0,0-.85,2.38c.08.37.2.37.37.38a1.17,1.17,0,0,1,1.14,1.17v4.15A1.17,1.17,0,0,1,124.71,126.24Z"/><path class="cls-26" d="M134.45,131c-.13-7.17-.29-16-.38-22.21a1.19,1.19,0,0,0-.54-1,1.2,1.2,0,0,0-1.12-.08l-7.61,3.42h-.08a12.61,12.61,0,0,0-8.86,2.21,11.76,11.76,0,0,1,4.66-.82,11.8,11.8,0,0,1,2.43-.29l7-3.16c0,.33,0,.68,0,1l2.92-1.31c.11,7.57.33,19.24.46,26.81l-2.93.16v.13l-8.77.46v-.8a12.12,12.12,0,0,1-2,.12,12,12,0,0,1-4.3.16,11.54,11.54,0,0,0,8.07.59,1.16,1.16,0,0,0,.32.5,1.14,1.14,0,0,0,.8.32h.07l8.77-.46a1.19,1.19,0,0,0,1.11-1.2Z"/><path class="cls-26" d="M121.66,124.72v-1.29a2.4,2.4,0,0,1-1.16-1.86,3.82,3.82,0,0,1,0-.89,2.68,2.68,0,0,1-.33-2.21C118.71,120.69,119.06,123.67,121.66,124.72Z"/><path class="cls-26" d="M121.66,124.72c-2.6-1-3-4-1.45-6.25a3.28,3.28,0,0,1,1.45-2.26,6.88,6.88,0,0,0-1.23.26,6.35,6.35,0,0,0-2.26,5.33,4.78,4.78,0,0,0,2.2,3.58,8.09,8.09,0,0,0,1.29,0Z"/><path class="cls-26" d="M119.7,135.72a12.12,12.12,0,0,0,2-.12v-.39A14.57,14.57,0,0,1,119.7,135.72Z"/><path class="cls-26" d="M121.82,112.78l1.13-.5a11.8,11.8,0,0,0-2.43.29c.38,0,.75,0,1.14.06Z"/><path class="cls-26" d="M131.75,110.64c.1,6,.24,13.93.36,20.44l.06,3.46-1.76.1c0,.4,0,.79,0,1.17l2.93-.16c-.13-7.57-.35-19.24-.46-26.81L130,110.15c0,.42,0,.84,0,1.28Z"/><path class="cls-26" d="M124.59,134.93a16,16,0,0,1-2.93.67v.8l8.77-.46v-.13l-5.84.31Z"/><path class="cls-26" d="M119.7,135.72c-12.13-.3-10.94-20.48.82-23.15a11.76,11.76,0,0,0-4.66.82,13.59,13.59,0,0,0-4,4.69c-2.77,5.21-2.48,11.75.7,15.55a9,9,0,0,0,2.85,2.25A12,12,0,0,0,119.7,135.72Z"/><path class="cls-26" d="M124.59,112.35l.16.15,5.23-2.35c0-.35,0-.7,0-1l-7,3.16A13.09,13.09,0,0,1,124.59,112.35Z"/><path class="cls-26" d="M120.54,120.68a4.18,4.18,0,0,1,1.4-2.42,4.56,4.56,0,0,0,0,1.61,2.7,2.7,0,0,0,1.46,2v2.1a4,4,0,0,1-1.76-.5v1.29a6.27,6.27,0,0,0,2.93.35v-4.15c-2.4-.06-1.69-4.17,0-5a5.89,5.89,0,0,0-4.38,2.54A2.68,2.68,0,0,0,120.54,120.68Z"/><path class="cls-26" d="M119.7,135.72a14.57,14.57,0,0,0,2-.51v.39a16,16,0,0,0,2.93-.67v1.19l5.84-.31c0-.38,0-.77,0-1.17l-4.64.24a1.2,1.2,0,0,0-.48-.9,1.26,1.26,0,0,0-.7-.22,1.13,1.13,0,0,0-.36.06c-4.35,1.4-7.77.82-9.88-1.7-2.55-3-2.73-8.61-.43-12.94a10.27,10.27,0,0,1,10.18-5.7,1.17,1.17,0,0,0,1.13.09l4.77-2.14c0-.44,0-.86,0-1.28l-5.23,2.35-.16-.15a13.09,13.09,0,0,0-1.64-.07l-1.13.5-.16-.15c-.39,0-.76,0-1.14-.06C108.76,115.24,107.57,135.42,119.7,135.72Z"/><path class="cls-26" d="M124.63,119.75c-.17,0-.29,0-.37-.38a2.59,2.59,0,0,1,.85-2.38,1.18,1.18,0,0,0-.64-2.23,7.24,7.24,0,0,0-4,1.71,6.88,6.88,0,0,1,1.23-.26,3.28,3.28,0,0,0-1.45,2.26,5.89,5.89,0,0,1,4.38-2.54c-1.69.82-2.4,4.93,0,5v4.15a6.27,6.27,0,0,1-2.93-.35v.63a8.09,8.09,0,0,1-1.29,0,6.35,6.35,0,0,0,3.43.9c.29,0,.59,0,.91,0a1.17,1.17,0,0,0,1.06-1.17v-4.15A1.17,1.17,0,0,0,124.63,119.75Z"/><polygon class="cls-24" points="138.95 98.53 136.91 99.38 139.38 139.72 141.47 139.6 138.95 98.53"/><path class="cls-25" d="M130.62,102l-.53,2.67,1.26-.28a1.07,1.07,0,0,1,.25,0,1.13,1.13,0,0,1,.71.24,1.18,1.18,0,0,1,.47.87l1.78,34.5,4.82-.27-2.47-40.34Z"/><path class="cls-26" d="M127.91,107.18a1.28,1.28,0,0,0,.53.21l0-.33Z"/><path class="cls-26" d="M141.2,96.73a1.17,1.17,0,0,0-.56-.92,1.19,1.19,0,0,0-1.07-.09l-10.43,4.38a1.18,1.18,0,0,0-.7.85l-.19,1,1.3-.55,0-.19L140,96.8l2.69,43.91-3.26.18.07,1.17,3.26-.18a1.2,1.2,0,0,0,.81-.39,1.16,1.16,0,0,0,.3-.85Z"/><polygon class="cls-26" points="136.91 99.38 138.95 98.53 141.47 139.6 139.38 139.72 139.45 140.89 142.71 140.71 140.02 96.8 129.59 101.18 129.55 101.37 136.84 98.31 136.91 99.38"/><path class="cls-26" d="M133.45,141.22l-1.85-35.67-3,.68,1-4.86-1.3.55-.82,4.08a1.19,1.19,0,0,0,.34,1.07l.14.11.51-.12,0,.33a1.08,1.08,0,0,0,.4,0l1.66-.37,1.78,34.28a1.2,1.2,0,0,0,.39.82,1.17,1.17,0,0,0,.78.3h.07l6-.33-.07-1.17Z"/><path class="cls-26" d="M131.6,105.55l1.85,35.67,6-.33-.07-1.17-4.82.27-1.78-34.5a1.18,1.18,0,0,0-.47-.87,1.13,1.13,0,0,0-.71-.24,1.07,1.07,0,0,0-.25,0l-1.26.28.53-2.67,6.29-2.64-.07-1.07-7.29,3.06-1,4.86Z"/><polygon class="cls-24" points="151.78 142.28 149.09 98.37 145.91 99.71 148.53 142.46 151.78 142.28"/><polygon class="cls-25" points="137.65 107.8 140.67 107.12 142.52 142.79 148.53 142.46 145.91 99.71 138.66 102.75 137.65 107.8"/><path class="cls-26" d="M142.52,144a1.16,1.16,0,0,1-.79-.3,1.18,1.18,0,0,1-.39-.81l-1.77-34.28-1.66.37a1.17,1.17,0,0,1-1.41-1.37l1-5a1.18,1.18,0,0,1,.7-.86l10.43-4.37a1.18,1.18,0,0,1,1.08.08,1.19,1.19,0,0,1,.55.93L153,142.21a1.16,1.16,0,0,1-1.11,1.24l-9.26.51Zm-1.85-38a1.17,1.17,0,0,1,1.17,1.11l1.79,34.49,6.9-.38L148,100.09l-8.33,3.5-.54,2.67,1.26-.29Z"/><path class="cls-27" d="M156.57,127.32l5.47-6.77a4.35,4.35,0,0,0-5.26.76A5.73,5.73,0,0,0,156.57,127.32Z"/><path class="cls-24" d="M170,119l1.67-2c-8.66-7.81-21.56-.91-23.23,8.58C151.62,117.9,162.2,113.05,170,119Z"/><path class="cls-24" d="M161.77,128.78l2-2.44-2.57,2.42Z"/><path class="cls-24" d="M156.58,127.36l5.46-6.81-5.47,6.77S156.58,127.35,156.58,127.36Z"/><path class="cls-24" d="M166.91,128l4.23,5.11a9,9,0,0,0,1.48-1.86l-4.92-6a11.24,11.24,0,0,1-3.58,4C165.27,129.6,166,129.69,166.91,128Z"/><path class="cls-24" d="M162,120.55c-2.37-1.14-4.22-.59-5.26.76A4.35,4.35,0,0,1,162,120.55Z"/><path class="cls-25" d="M164.12,129.27a11.48,11.48,0,0,0-2.35-.49l-1.36,1.63A6.64,6.64,0,0,0,164.12,129.27Z"/><path class="cls-25" d="M170.83,119.73c-.29-.26-.58-.49-.88-.71l-6.13,7.32Z"/><path class="cls-25" d="M156.57,127.32a5.73,5.73,0,0,1,.21-6,6.19,6.19,0,0,0-1,7Z"/><path class="cls-25" d="M150.38,134.6c4.84,4.78,15.86,3.43,20.76-1.49L166.91,128c-.95,1.69-1.64,1.6-2.79,1.27a6.64,6.64,0,0,1-3.71,1.14l1.36-1.63-.52,0,2.57-2.42L170,119c-7.75-6-18.33-1.12-21.56,6.59A12.24,12.24,0,0,0,150.38,134.6Zm6.4-13.29c1-1.35,2.89-1.9,5.26-.76l-5.46,6.81s0,0,0,0l-.8,1A6.19,6.19,0,0,1,156.78,121.31Z"/><path class="cls-26" d="M159.07,138.75c-3.91,0-7.34-1.18-9.51-3.32a1.46,1.46,0,0,1-.16-.19c-4.67-7.09-1.82-14.51,3.08-18.72s13.39-6.26,19.92-.36a1.18,1.18,0,0,1,.12,1.63l-5.5,6.55a1.19,1.19,0,0,1,1.58.22l4.92,5.94a1.16,1.16,0,0,1,.11,1.33c-2,3.43-6.49,6-11.8,6.73A20.12,20.12,0,0,1,159.07,138.75Zm-7.78-4.91c2.17,2.07,6,3,10.23,2.39s7.83-2.45,9.64-4.9l-3.34-4c-2,2.77-4.63,4.29-7.42,4.29a1.17,1.17,0,0,1-.89-1.93L170,117.18c-5.34-4-11.92-2.35-16,1.12C150.21,121.56,147.24,127.58,151.29,133.84Zm15.33-9L164,128A10.68,10.68,0,0,0,166.62,124.83Zm-10.85,4.65h-.12a1.16,1.16,0,0,1-.92-.63,7.4,7.4,0,0,1,1.18-8.33,5.57,5.57,0,0,1,6.64-1,1.16,1.16,0,0,1,.4,1.79L156.68,129A1.16,1.16,0,0,1,155.77,129.48Zm4-8.3a3.06,3.06,0,0,0-2.22,1,4.93,4.93,0,0,0-1.29,3.63l3.71-4.59Z"/></g></g></svg>